;TYPE=PLATED
;Layer: PTH_Through
;EasyEDA Pro v2.2.37.7, 2025-04-21 16:56:55
;Gerber Generator version 0.3
M48
METRIC,LZ,0000.00000
;Hole size 1 = 0.30500 METRIC
T01C0.30500
;Hole size 2 = 0.40000 METRIC
T02C0.40000
;Hole size 3 = 0.60000 METRIC
T03C0.60000
;Hole size 4 = 0.70002 METRIC
T04C0.70002
;Hole size 5 = 1.00000 METRIC
T05C1.00000
;Hole size 6 = 1.25400 METRIC
T06C1.25400
%
G05
G90
T01
X-225.22872Y28.33465
X-218.91142Y45.52302
X-222.34042Y40.82402
X-224.257Y41.95267
X-224.9426Y38.608
T02
X-222.05848Y44.5751
X-222.05848Y50.67516
X-222.75851Y50.02517
X-222.75851Y45.22508
X-222.75851Y49.22507
X-222.75851Y46.02518
X-222.75851Y48.42523
X-222.75851Y46.82503
X-222.05848Y48.82502
X-222.05848Y46.42523
X-222.05848Y48.02518
X-222.05848Y47.22508
T03
X-221.54848Y43.12501G85X-220.94848Y43.12501
X-221.54848Y52.12499G85X-220.94848Y52.12499
X-227.15855Y43.12501G85X-226.5586Y43.12501
X-227.15855Y52.12499G85X-226.5586Y52.12499
T04
X-225.62607Y26.86195G85X-226.92604Y26.86195
X-225.62607Y12.76198G85X-226.92604Y12.76198
X-219.72608Y26.86195G85X-221.02605Y26.86195
X-219.72608Y12.76198G85X-221.02605Y12.76198
T05
X-221.40593Y32.512G85X-221.35595Y32.512
X-223.90593Y32.512G85X-223.85594Y32.512
T06
X-207.002Y46.512
X-207.002Y42.51201
X-207.002Y38.51199
X-207.002Y34.512
X-207.002Y30.51201
X-207.002Y26.51199
X-207.002Y22.512
X-207.002Y18.51201
X-204.002Y46.512
X-204.002Y42.51201
X-204.002Y38.51199
X-204.002Y34.512
X-204.002Y30.51201
X-204.002Y26.51199
X-204.002Y22.512
X-204.002Y18.51201
M30