G04 Layer: TopPasteMaskLayer*
G04 EasyEDA Pro v2.2.37.7, 2025-04-21 16:56:55*
G04 Gerber Generator version 0.3*
G04 Scale: 100 percent, Rotated: No, Reflected: No*
G04 Dimensions in millimeters*
G04 Leading zeros omitted, absolute positions, 4 integers and 5 decimals*
%FSLAX45Y45*%
%MOMM*%
%ADD10R,0.7X0.3*%
G75*


G04 PolygonModel Start*
G36*
G01X-21900309Y2680777D02*
G01X-21900129Y2684386D01*
G01X-21900129Y2688003D01*
G01X-21900309Y2691613D01*
G01X-21900670Y2695209D01*
G01X-21901208Y2698786D01*
G01X-21901925Y2702329D01*
G01X-21902816Y2705832D01*
G01X-21903880Y2709286D01*
G01X-21905117Y2712682D01*
G01X-21906522Y2716014D01*
G01X-21908089Y2719271D01*
G01X-21909819Y2722446D01*
G01X-21911704Y2725529D01*
G01X-21913741Y2728516D01*
G01X-21915923Y2731399D01*
G01X-21918247Y2734168D01*
G01X-21920705Y2736817D01*
G01X-21923294Y2739342D01*
G01X-21926004Y2741734D01*
G01X-21928831Y2743987D01*
G01X-21931767Y2746098D01*
G01X-21934802Y2748059D01*
G01X-21937934Y2749868D01*
G01X-21941150Y2751516D01*
G01X-21944447Y2753004D01*
G01X-21947810Y2754325D01*
G01X-21951239Y2755476D01*
G01X-21954719Y2756454D01*
G01X-21958242Y2757259D01*
G01X-21961803Y2757886D01*
G01X-21965389Y2758336D01*
G01X-21968993Y2758608D01*
G01X-21972608Y2758697D01*
G01X-22102608Y2758697D01*
G01X-22106222Y2758608D01*
G01X-22109826Y2758336D01*
G01X-22113413Y2757886D01*
G01X-22116974Y2757259D01*
G01X-22120497Y2756454D01*
G01X-22123977Y2755476D01*
G01X-22127406Y2754325D01*
G01X-22130769Y2753004D01*
G01X-22134065Y2751516D01*
G01X-22137281Y2749868D01*
G01X-22140413Y2748059D01*
G01X-22143448Y2746098D01*
G01X-22146384Y2743987D01*
G01X-22149211Y2741734D01*
G01X-22151922Y2739342D01*
G01X-22154510Y2736817D01*
G01X-22156969Y2734168D01*
G01X-22159293Y2731399D01*
G01X-22161475Y2728516D01*
G01X-22163512Y2725529D01*
G01X-22165396Y2722446D01*
G01X-22167126Y2719271D01*
G01X-22168693Y2716014D01*
G01X-22170098Y2712682D01*
G01X-22171335Y2709286D01*
G01X-22172399Y2705832D01*
G01X-22173291Y2702329D01*
G01X-22174007Y2698786D01*
G01X-22174545Y2695209D01*
G01X-22174906Y2691613D01*
G01X-22175086Y2688003D01*
G01X-22175086Y2684386D01*
G01X-22174906Y2680777D01*
G01X-22174545Y2677180D01*
G01X-22174007Y2673604D01*
G01X-22173291Y2670061D01*
G01X-22172399Y2666558D01*
G01X-22171335Y2663104D01*
G01X-22170098Y2659708D01*
G01X-22168693Y2656375D01*
G01X-22167126Y2653119D01*
G01X-22165396Y2649944D01*
G01X-22163512Y2646860D01*
G01X-22161475Y2643873D01*
G01X-22159293Y2640990D01*
G01X-22156969Y2638222D01*
G01X-22154510Y2635573D01*
G01X-22151922Y2633048D01*
G01X-22149211Y2630655D01*
G01X-22146384Y2628402D01*
G01X-22143448Y2626291D01*
G01X-22140413Y2624331D01*
G01X-22137281Y2622522D01*
G01X-22134065Y2620874D01*
G01X-22130769Y2619385D01*
G01X-22127406Y2618064D01*
G01X-22123977Y2616914D01*
G01X-22120497Y2615936D01*
G01X-22116974Y2615131D01*
G01X-22113413Y2614503D01*
G01X-22109826Y2614054D01*
G01X-22106222Y2613782D01*
G01X-22102608Y2613693D01*
G01X-21972608Y2613693D01*
G01X-21968993Y2613782D01*
G01X-21965389Y2614054D01*
G01X-21961803Y2614503D01*
G01X-21958242Y2615131D01*
G01X-21954719Y2615936D01*
G01X-21951239Y2616914D01*
G01X-21947810Y2618064D01*
G01X-21944447Y2619385D01*
G01X-21941150Y2620874D01*
G01X-21937934Y2622522D01*
G01X-21934802Y2624331D01*
G01X-21931767Y2626291D01*
G01X-21928831Y2628402D01*
G01X-21926004Y2630655D01*
G01X-21923294Y2633048D01*
G01X-21920705Y2635573D01*
G01X-21918247Y2638222D01*
G01X-21915923Y2640990D01*
G01X-21913741Y2643873D01*
G01X-21911704Y2646860D01*
G01X-21909819Y2649944D01*
G01X-21908089Y2653119D01*
G01X-21906522Y2656375D01*
G01X-21905117Y2659708D01*
G01X-21903880Y2663104D01*
G01X-21902816Y2666558D01*
G01X-21901925Y2670061D01*
G01X-21901208Y2673604D01*
G01X-21900670Y2677180D01*
G01X-21900309Y2680777D01*
G37*
G36*
G01X-21900309Y1270780D02*
G01X-21900129Y1274389D01*
G01X-21900129Y1278006D01*
G01X-21900309Y1281615D01*
G01X-21900670Y1285212D01*
G01X-21901208Y1288788D01*
G01X-21901925Y1292332D01*
G01X-21902816Y1295834D01*
G01X-21903880Y1299289D01*
G01X-21905117Y1302685D01*
G01X-21906522Y1306017D01*
G01X-21908089Y1309273D01*
G01X-21909819Y1312448D01*
G01X-21911704Y1315532D01*
G01X-21913741Y1318519D01*
G01X-21915923Y1321402D01*
G01X-21918247Y1324171D01*
G01X-21920705Y1326820D01*
G01X-21923294Y1329345D01*
G01X-21926004Y1331737D01*
G01X-21928831Y1333990D01*
G01X-21931767Y1336101D01*
G01X-21934802Y1338062D01*
G01X-21937934Y1339870D01*
G01X-21941150Y1341519D01*
G01X-21944447Y1343007D01*
G01X-21947810Y1344328D01*
G01X-21951239Y1345479D01*
G01X-21954719Y1346457D01*
G01X-21958242Y1347262D01*
G01X-21961803Y1347889D01*
G01X-21965389Y1348339D01*
G01X-21968993Y1348610D01*
G01X-21972608Y1348699D01*
G01X-22102608Y1348699D01*
G01X-22106222Y1348610D01*
G01X-22109826Y1348339D01*
G01X-22113413Y1347889D01*
G01X-22116974Y1347262D01*
G01X-22120497Y1346457D01*
G01X-22123977Y1345479D01*
G01X-22127406Y1344328D01*
G01X-22130769Y1343007D01*
G01X-22134065Y1341519D01*
G01X-22137281Y1339870D01*
G01X-22140413Y1338062D01*
G01X-22143448Y1336101D01*
G01X-22146384Y1333990D01*
G01X-22149211Y1331737D01*
G01X-22151922Y1329345D01*
G01X-22154510Y1326820D01*
G01X-22156969Y1324171D01*
G01X-22159293Y1321402D01*
G01X-22161475Y1318519D01*
G01X-22163512Y1315532D01*
G01X-22165396Y1312448D01*
G01X-22167126Y1309273D01*
G01X-22168693Y1306017D01*
G01X-22170098Y1302685D01*
G01X-22171335Y1299289D01*
G01X-22172399Y1295834D01*
G01X-22173291Y1292332D01*
G01X-22174007Y1288788D01*
G01X-22174545Y1285212D01*
G01X-22174906Y1281615D01*
G01X-22175086Y1278006D01*
G01X-22175086Y1274389D01*
G01X-22174906Y1270780D01*
G01X-22174545Y1267183D01*
G01X-22174007Y1263607D01*
G01X-22173291Y1260064D01*
G01X-22172399Y1256561D01*
G01X-22171335Y1253106D01*
G01X-22170098Y1249710D01*
G01X-22168693Y1246378D01*
G01X-22167126Y1243122D01*
G01X-22165396Y1239947D01*
G01X-22163512Y1236863D01*
G01X-22161475Y1233876D01*
G01X-22159293Y1230993D01*
G01X-22156969Y1228225D01*
G01X-22154510Y1225575D01*
G01X-22151922Y1223051D01*
G01X-22149211Y1220658D01*
G01X-22146384Y1218405D01*
G01X-22143448Y1216294D01*
G01X-22140413Y1214333D01*
G01X-22137281Y1212525D01*
G01X-22134065Y1210876D01*
G01X-22130769Y1209388D01*
G01X-22127406Y1208067D01*
G01X-22123977Y1206917D01*
G01X-22120497Y1205939D01*
G01X-22116974Y1205133D01*
G01X-22113413Y1204506D01*
G01X-22109826Y1204057D01*
G01X-22106222Y1203785D01*
G01X-22102608Y1203696D01*
G01X-21972608Y1203696D01*
G01X-21968993Y1203785D01*
G01X-21965389Y1204057D01*
G01X-21961803Y1204506D01*
G01X-21958242Y1205133D01*
G01X-21954719Y1205939D01*
G01X-21951239Y1206917D01*
G01X-21947810Y1208067D01*
G01X-21944447Y1209388D01*
G01X-21941150Y1210876D01*
G01X-21937934Y1212525D01*
G01X-21934802Y1214333D01*
G01X-21931767Y1216294D01*
G01X-21928831Y1218405D01*
G01X-21926004Y1220658D01*
G01X-21923294Y1223051D01*
G01X-21920705Y1225575D01*
G01X-21918247Y1228225D01*
G01X-21915923Y1230993D01*
G01X-21913741Y1233876D01*
G01X-21911704Y1236863D01*
G01X-21909819Y1239947D01*
G01X-21908089Y1243122D01*
G01X-21906522Y1246378D01*
G01X-21905117Y1249710D01*
G01X-21903880Y1253106D01*
G01X-21902816Y1256561D01*
G01X-21901925Y1260064D01*
G01X-21901208Y1263607D01*
G01X-21900670Y1267183D01*
G01X-21900309Y1270780D01*
G37*
G36*
G01X-22490308Y2680777D02*
G01X-22490128Y2684386D01*
G01X-22490128Y2688003D01*
G01X-22490308Y2691613D01*
G01X-22490669Y2695209D01*
G01X-22491207Y2698786D01*
G01X-22491924Y2702329D01*
G01X-22492815Y2705832D01*
G01X-22493879Y2709286D01*
G01X-22495116Y2712682D01*
G01X-22496521Y2716014D01*
G01X-22498088Y2719271D01*
G01X-22499818Y2722446D01*
G01X-22501703Y2725529D01*
G01X-22503740Y2728516D01*
G01X-22505921Y2731399D01*
G01X-22508246Y2734168D01*
G01X-22510704Y2736817D01*
G01X-22513293Y2739342D01*
G01X-22516003Y2741734D01*
G01X-22518830Y2743987D01*
G01X-22521766Y2746098D01*
G01X-22524801Y2748059D01*
G01X-22527933Y2749868D01*
G01X-22531149Y2751516D01*
G01X-22534446Y2753004D01*
G01X-22537809Y2754325D01*
G01X-22541238Y2755476D01*
G01X-22544717Y2756454D01*
G01X-22548240Y2757259D01*
G01X-22551801Y2757886D01*
G01X-22555388Y2758336D01*
G01X-22558992Y2758608D01*
G01X-22562607Y2758697D01*
G01X-22692606Y2758697D01*
G01X-22696221Y2758608D01*
G01X-22699825Y2758336D01*
G01X-22703412Y2757886D01*
G01X-22706973Y2757259D01*
G01X-22710496Y2756454D01*
G01X-22713975Y2755476D01*
G01X-22717404Y2754325D01*
G01X-22720767Y2753004D01*
G01X-22724064Y2751516D01*
G01X-22727280Y2749868D01*
G01X-22730412Y2748059D01*
G01X-22733447Y2746098D01*
G01X-22736383Y2743987D01*
G01X-22739210Y2741734D01*
G01X-22741920Y2739342D01*
G01X-22744509Y2736817D01*
G01X-22746967Y2734168D01*
G01X-22749292Y2731399D01*
G01X-22751473Y2728516D01*
G01X-22753510Y2725529D01*
G01X-22755395Y2722446D01*
G01X-22757125Y2719271D01*
G01X-22758692Y2716014D01*
G01X-22760097Y2712682D01*
G01X-22761334Y2709286D01*
G01X-22762398Y2705832D01*
G01X-22763289Y2702329D01*
G01X-22764006Y2698786D01*
G01X-22764544Y2695209D01*
G01X-22764905Y2691613D01*
G01X-22765085Y2688003D01*
G01X-22765085Y2684386D01*
G01X-22764905Y2680777D01*
G01X-22764544Y2677180D01*
G01X-22764006Y2673604D01*
G01X-22763289Y2670061D01*
G01X-22762398Y2666558D01*
G01X-22761334Y2663104D01*
G01X-22760097Y2659708D01*
G01X-22758692Y2656375D01*
G01X-22757125Y2653119D01*
G01X-22755395Y2649944D01*
G01X-22753510Y2646860D01*
G01X-22751473Y2643873D01*
G01X-22749292Y2640990D01*
G01X-22746967Y2638222D01*
G01X-22744509Y2635573D01*
G01X-22741920Y2633048D01*
G01X-22739210Y2630655D01*
G01X-22736383Y2628402D01*
G01X-22733447Y2626291D01*
G01X-22730412Y2624331D01*
G01X-22727280Y2622522D01*
G01X-22724064Y2620874D01*
G01X-22720767Y2619385D01*
G01X-22717404Y2618064D01*
G01X-22713975Y2616914D01*
G01X-22710496Y2615936D01*
G01X-22706973Y2615131D01*
G01X-22703412Y2614503D01*
G01X-22699825Y2614054D01*
G01X-22696221Y2613782D01*
G01X-22692606Y2613693D01*
G01X-22562607Y2613693D01*
G01X-22558992Y2613782D01*
G01X-22555388Y2614054D01*
G01X-22551801Y2614503D01*
G01X-22548240Y2615131D01*
G01X-22544717Y2615936D01*
G01X-22541238Y2616914D01*
G01X-22537809Y2618064D01*
G01X-22534446Y2619385D01*
G01X-22531149Y2620874D01*
G01X-22527933Y2622522D01*
G01X-22524801Y2624331D01*
G01X-22521766Y2626291D01*
G01X-22518830Y2628402D01*
G01X-22516003Y2630655D01*
G01X-22513293Y2633048D01*
G01X-22510704Y2635573D01*
G01X-22508246Y2638222D01*
G01X-22505921Y2640990D01*
G01X-22503740Y2643873D01*
G01X-22501703Y2646860D01*
G01X-22499818Y2649944D01*
G01X-22498088Y2653119D01*
G01X-22496521Y2656375D01*
G01X-22495116Y2659708D01*
G01X-22493879Y2663104D01*
G01X-22492815Y2666558D01*
G01X-22491924Y2670061D01*
G01X-22491207Y2673604D01*
G01X-22490669Y2677180D01*
G01X-22490308Y2680777D01*
G37*
G36*
G01X-22490308Y1270780D02*
G01X-22490128Y1274389D01*
G01X-22490128Y1278006D01*
G01X-22490308Y1281615D01*
G01X-22490669Y1285212D01*
G01X-22491207Y1288788D01*
G01X-22491924Y1292332D01*
G01X-22492815Y1295834D01*
G01X-22493879Y1299289D01*
G01X-22495116Y1302685D01*
G01X-22496521Y1306017D01*
G01X-22498088Y1309273D01*
G01X-22499818Y1312448D01*
G01X-22501703Y1315532D01*
G01X-22503740Y1318519D01*
G01X-22505921Y1321402D01*
G01X-22508246Y1324171D01*
G01X-22510704Y1326820D01*
G01X-22513293Y1329345D01*
G01X-22516003Y1331737D01*
G01X-22518830Y1333990D01*
G01X-22521766Y1336101D01*
G01X-22524801Y1338062D01*
G01X-22527933Y1339870D01*
G01X-22531149Y1341519D01*
G01X-22534446Y1343007D01*
G01X-22537809Y1344328D01*
G01X-22541238Y1345479D01*
G01X-22544717Y1346457D01*
G01X-22548240Y1347262D01*
G01X-22551801Y1347889D01*
G01X-22555388Y1348339D01*
G01X-22558992Y1348610D01*
G01X-22562607Y1348699D01*
G01X-22692606Y1348699D01*
G01X-22696221Y1348610D01*
G01X-22699825Y1348339D01*
G01X-22703412Y1347889D01*
G01X-22706973Y1347262D01*
G01X-22710496Y1346457D01*
G01X-22713975Y1345479D01*
G01X-22717404Y1344328D01*
G01X-22720767Y1343007D01*
G01X-22724064Y1341519D01*
G01X-22727280Y1339870D01*
G01X-22730412Y1338062D01*
G01X-22733447Y1336101D01*
G01X-22736383Y1333990D01*
G01X-22739210Y1331737D01*
G01X-22741920Y1329345D01*
G01X-22744509Y1326820D01*
G01X-22746967Y1324171D01*
G01X-22749292Y1321402D01*
G01X-22751473Y1318519D01*
G01X-22753510Y1315532D01*
G01X-22755395Y1312448D01*
G01X-22757125Y1309273D01*
G01X-22758692Y1306017D01*
G01X-22760097Y1302685D01*
G01X-22761334Y1299289D01*
G01X-22762398Y1295834D01*
G01X-22763289Y1292332D01*
G01X-22764006Y1288788D01*
G01X-22764544Y1285212D01*
G01X-22764905Y1281615D01*
G01X-22765085Y1278006D01*
G01X-22765085Y1274389D01*
G01X-22764905Y1270780D01*
G01X-22764544Y1267183D01*
G01X-22764006Y1263607D01*
G01X-22763289Y1260064D01*
G01X-22762398Y1256561D01*
G01X-22761334Y1253106D01*
G01X-22760097Y1249710D01*
G01X-22758692Y1246378D01*
G01X-22757125Y1243122D01*
G01X-22755395Y1239947D01*
G01X-22753510Y1236863D01*
G01X-22751473Y1233876D01*
G01X-22749292Y1230993D01*
G01X-22746967Y1228225D01*
G01X-22744509Y1225575D01*
G01X-22741920Y1223051D01*
G01X-22739210Y1220658D01*
G01X-22736383Y1218405D01*
G01X-22733447Y1216294D01*
G01X-22730412Y1214333D01*
G01X-22727280Y1212525D01*
G01X-22724064Y1210876D01*
G01X-22720767Y1209388D01*
G01X-22717404Y1208067D01*
G01X-22713975Y1206917D01*
G01X-22710496Y1205939D01*
G01X-22706973Y1205133D01*
G01X-22703412Y1204506D01*
G01X-22699825Y1204057D01*
G01X-22696221Y1203785D01*
G01X-22692606Y1203696D01*
G01X-22562607Y1203696D01*
G01X-22558992Y1203785D01*
G01X-22555388Y1204057D01*
G01X-22551801Y1204506D01*
G01X-22548240Y1205133D01*
G01X-22544717Y1205939D01*
G01X-22541238Y1206917D01*
G01X-22537809Y1208067D01*
G01X-22534446Y1209388D01*
G01X-22531149Y1210876D01*
G01X-22527933Y1212525D01*
G01X-22524801Y1214333D01*
G01X-22521766Y1216294D01*
G01X-22518830Y1218405D01*
G01X-22516003Y1220658D01*
G01X-22513293Y1223051D01*
G01X-22510704Y1225575D01*
G01X-22508246Y1228225D01*
G01X-22505921Y1230993D01*
G01X-22503740Y1233876D01*
G01X-22501703Y1236863D01*
G01X-22499818Y1239947D01*
G01X-22498088Y1243122D01*
G01X-22496521Y1246378D01*
G01X-22495116Y1249710D01*
G01X-22493879Y1253106D01*
G01X-22492815Y1256561D01*
G01X-22491924Y1260064D01*
G01X-22491207Y1263607D01*
G01X-22490669Y1267183D01*
G01X-22490308Y1270780D01*
G37*
G36*
G01X-21357608Y1651699D02*
G01X-21357608Y1596697D01*
G01X-21677607Y1596697D01*
G01X-21677607Y1651699D01*
G01X-21357608Y1651699D01*
G37*
G36*
G01X-21357608Y1753697D02*
G01X-21357608Y1698696D01*
G01X-21677607Y1698696D01*
G01X-21677607Y1753697D01*
G01X-21357608Y1753697D01*
G37*
G36*
G01X-21357608Y1855699D02*
G01X-21357608Y1800697D01*
G01X-21677607Y1800697D01*
G01X-21677607Y1855699D01*
G01X-21357608Y1855699D01*
G37*
G36*
G01X-21357608Y1957697D02*
G01X-21357608Y1902696D01*
G01X-21677607Y1902696D01*
G01X-21677607Y1957697D01*
G01X-21357608Y1957697D01*
G37*
G36*
G01X-21357608Y2059696D02*
G01X-21357608Y2004695D01*
G01X-21677607Y2004695D01*
G01X-21677607Y2059696D01*
G01X-21357608Y2059696D01*
G37*
G36*
G01X-21357608Y2161697D02*
G01X-21357608Y2106696D01*
G01X-21677607Y2106696D01*
G01X-21677607Y2161697D01*
G01X-21357608Y2161697D01*
G37*
G36*
G01X-21357608Y2263696D02*
G01X-21357608Y2208695D01*
G01X-21677607Y2208695D01*
G01X-21677607Y2263696D01*
G01X-21357608Y2263696D01*
G37*
G36*
G01X-21357608Y2365698D02*
G01X-21357608Y2310696D01*
G01X-21677607Y2310696D01*
G01X-21677607Y2365698D01*
G01X-21357608Y2365698D01*
G37*
G36*
G01X-22223600Y3923149D02*
G01X-22223600Y3887018D01*
G01X-22233600Y3877018D01*
G01X-22254657Y3877018D01*
G01X-22264657Y3867018D01*
G01X-22264657Y3829182D01*
G01X-22254657Y3819182D01*
G01X-22233600Y3819182D01*
G01X-22223600Y3809182D01*
G01X-22223600Y3773051D01*
G01X-22233600Y3763051D01*
G01X-22334352Y3763051D01*
G01X-22344352Y3773051D01*
G01X-22344352Y3923149D01*
G01X-22334352Y3933149D01*
G01X-22233600Y3933149D01*
G01X-22223600Y3923149D01*
G37*
G36*
G01X-22048600Y3923149D02*
G01X-22048600Y3887018D01*
G01X-22038600Y3877018D01*
G01X-22017543Y3877018D01*
G01X-22007543Y3867018D01*
G01X-22007543Y3829182D01*
G01X-22017543Y3819182D01*
G01X-22038600Y3819182D01*
G01X-22048600Y3809182D01*
G01X-22048600Y3773051D01*
G01X-22038600Y3763051D01*
G01X-21937848Y3763051D01*
G01X-21927848Y3773051D01*
G01X-21927848Y3923149D01*
G01X-21937848Y3933149D01*
G01X-22038600Y3933149D01*
G01X-22048600Y3923149D01*
G37*
G36*
G01X-22573102Y4031701D02*
G01X-22493102Y4031701D01*
G01X-22488101Y4036703D01*
G01X-22488101Y4059499D01*
G01X-22525101Y4059499D01*
G01X-22525101Y4092499D01*
G01X-22488101Y4092499D01*
G01X-22488101Y4116702D01*
G01X-22493102Y4121701D01*
G01X-22573102Y4121701D01*
G01X-22578101Y4116702D01*
G01X-22578101Y4036703D01*
G01X-22573102Y4031701D01*
G37*
G36*
G01X-22334098Y4121699D02*
G01X-22414098Y4121699D01*
G01X-22419099Y4116697D01*
G01X-22419099Y4093901D01*
G01X-22382099Y4093901D01*
G01X-22382099Y4060901D01*
G01X-22419099Y4060901D01*
G01X-22419099Y4036698D01*
G01X-22414098Y4031699D01*
G01X-22334098Y4031699D01*
G01X-22329099Y4036698D01*
G01X-22329099Y4116697D01*
G01X-22334098Y4121699D01*
G37*
G36*
G01X-21220549Y1919100D02*
G01X-21184418Y1919100D01*
G01X-21174418Y1909100D01*
G01X-21174418Y1888043D01*
G01X-21164418Y1878043D01*
G01X-21126582Y1878043D01*
G01X-21116582Y1888043D01*
G01X-21116582Y1909100D01*
G01X-21106582Y1919100D01*
G01X-21070451Y1919100D01*
G01X-21060451Y1909100D01*
G01X-21060451Y1808348D01*
G01X-21070451Y1798348D01*
G01X-21220549Y1798348D01*
G01X-21230549Y1808348D01*
G01X-21230549Y1909100D01*
G01X-21220549Y1919100D01*
G37*
G36*
G01X-21220549Y2094100D02*
G01X-21184418Y2094100D01*
G01X-21174418Y2104100D01*
G01X-21174418Y2125157D01*
G01X-21164418Y2135157D01*
G01X-21126582Y2135157D01*
G01X-21116582Y2125157D01*
G01X-21116582Y2104100D01*
G01X-21106582Y2094100D01*
G01X-21070451Y2094100D01*
G01X-21060451Y2104100D01*
G01X-21060451Y2204852D01*
G01X-21070451Y2214852D01*
G01X-21220549Y2214852D01*
G01X-21230549Y2204852D01*
G01X-21230549Y2104100D01*
G01X-21220549Y2094100D01*
G37*

G04 Pad Start*
G54D10*
G01X-22094342Y5042014D03*
G01X-22094342Y4992002D03*
G01X-22094342Y4941989D03*
G01X-22094342Y4892002D03*
G01X-22094342Y4841989D03*
G01X-22094342Y4792002D03*
G01X-22094342Y4741990D03*
G01X-22094342Y4692002D03*
G01X-22094342Y4641990D03*
G01X-22094342Y4592003D03*
G01X-22094342Y4541990D03*
G01X-22094342Y4492003D03*
G04 Pad End*

M02*

