G04 Layer: BottomLayer*
G04 EasyEDA Pro v2.2.37.7, 2025-04-21 16:56:55*
G04 Gerber Generator version 0.3*
G04 Scale: 100 percent, Rotated: No, Reflected: No*
G04 Dimensions in millimeters*
G04 Leading zeros omitted, absolute positions, 4 integers and 5 decimals*
%FSLAX45Y45*%
%MOMM*%
%ADD10C,1.8*%
%ADD11R,1.8X1.8*%
%ADD12O,2.75001X1.45001*%
%ADD13C,0.55001*%
%ADD14O,1.6X1.0*%
%ADD15R,1.524X1.524*%
%ADD16C,0.61*%
%ADD17C,0.762*%
%ADD18C,0.254*%
%ADD19C,0.3048*%
%ADD20C,0.508*%
G75*


G04 Pad Start*
G54D10*
G01X-20700200Y4651200D03*
G01X-20700200Y4251201D03*
G01X-20700200Y3851202D03*
G01X-20700200Y3451202D03*
G01X-20700200Y3051203D03*
G01X-20700200Y2651204D03*
G01X-20700200Y2251205D03*
G01X-20700200Y1851206D03*
G01X-20400188Y4651200D03*
G01X-20400188Y4251201D03*
G01X-20400188Y3851202D03*
G01X-20400188Y3451202D03*
G01X-20400188Y3051203D03*
G01X-20400188Y2651204D03*
G01X-20400188Y2251205D03*
G54D11*
G01X-20400213Y1851206D03*
G54D12*
G01X-22627603Y2686202D03*
G01X-22627603Y1276198D03*
G01X-22037611Y2686202D03*
G01X-22037611Y1276198D03*
G54D13*
G01X-22205848Y4457510D03*
G01X-22205848Y5067516D03*
G01X-22275851Y5002517D03*
G01X-22275851Y4522508D03*
G01X-22275851Y4922507D03*
G01X-22275851Y4602518D03*
G01X-22275851Y4842523D03*
G01X-22275851Y4682503D03*
G01X-22205848Y4882502D03*
G01X-22205848Y4642523D03*
G01X-22205848Y4802518D03*
G01X-22205848Y4722508D03*
G54D14*
G01X-22124848Y4312501D03*
G01X-22124848Y5212499D03*
G01X-22685858Y4312501D03*
G01X-22685858Y5212499D03*
G54D15*
G01X-22138094Y3251200D03*
G01X-22388106Y3251200D03*
G04 Pad End*

G04 Via Start*
G54D16*
G01X-22522872Y2833465D03*
G01X-21891142Y4552302D03*
G01X-22234042Y4082402D03*
G01X-22425700Y4195267D03*
G01X-22494260Y3860800D03*
G04 Via End*

G04 Track Start*
G54D17*
G01X-20400188Y3451202D02*
G01X-20400188Y3051203D01*
G01X-22037611Y2686202D02*
G01X-22520211Y2686202D01*
G54D18*
G01X-22520211Y2686202D02*
G01X-22627603Y2686202D01*
G54D17*
G01X-20400188Y3051203D02*
G01X-20593891Y2857500D01*
G01X-21285200Y2857500D01*
G01X-21456498Y2686202D01*
G01X-22037611Y2686202D01*
G54D19*
G01X-22124848Y4312501D02*
G01X-22124848Y4376509D01*
G01X-22205848Y4457510D01*
G54D20*
G01X-20700200Y4651200D02*
G01X-22147313Y4641990D01*
G01X-22147847Y4642523D02*
G01X-22205848Y4642523D01*
G01X-22147313Y4641990D02*
G01X-22147847Y4642523D01*
G01X-22124848Y4312501D02*
G01X-22124848Y4299801D01*
G01X-22096928Y4693198D02*
G01X-22098000Y4825454D01*
G01X-22155048Y4882502D01*
G01X-22147314Y4641990D02*
G01X-22096928Y4693198D01*
G01X-22155048Y4882502D02*
G01X-22205848Y4882502D01*
G54D17*
G01X-22037611Y2686202D02*
G01X-22037611Y1276198D01*
G54D19*
G01X-21891142Y4552302D02*
G01X-21891142Y4397858D01*
G01X-22522872Y2846165D02*
G01X-22522872Y2833465D01*
G54D20*
G01X-22124848Y4299801D02*
G01X-22229381Y4195267D01*
G01X-22425700Y4195267D01*
G54D19*
G01X-22555201Y2878494D02*
G01X-22522872Y2846165D01*
G01X-22275851Y4602518D02*
G01X-22486582Y4602518D01*
G01X-22555201Y4533899D01*
G01X-22555201Y2878494D01*
G01X-21891142Y4397858D02*
G01X-22206598Y4082402D01*
G01X-22234042Y4082402D01*
G01X-22494260Y3860800D02*
G01X-22491700Y3863360D01*
G01X-22491700Y4508500D01*
G01X-22464992Y4535208D01*
G01X-22288551Y4535208D01*
G01X-22275851Y4522508D01*
G04 Track End*

M02*

