G04 Layer: TopSolderMaskLayer*
G04 EasyEDA Pro v2.2.37.7, 2025-04-21 16:56:55*
G04 Gerber Generator version 0.3*
G04 Scale: 100 percent, Rotated: No, Reflected: No*
G04 Dimensions in millimeters*
G04 Leading zeros omitted, absolute positions, 4 integers and 5 decimals*
%FSLAX45Y45*%
%MOMM*%
%AMRoundRect*1,1,$1,$2,$3*1,1,$1,$4,$5*1,1,$1,0-$2,0-$3*1,1,$1,0-$4,0-$5*20,1,$1,$2,$3,$4,$5,0*20,1,$1,$4,$5,0-$2,0-$3,0*20,1,$1,0-$2,0-$3,0-$4,0-$5,0*20,1,$1,0-$4,0-$5,$2,$3,0*4,1,4,$2,$3,$4,$5,0-$2,0-$3,0-$4,0-$5,$2,$3,0*%
%ADD10C,1.9016*%
%ADD11RoundRect,0.09645X-0.90257X0.90257X0.90257X0.90257*%
%ADD12RoundRect,0.0879X1.60685X0.28186X1.60685X-0.28186*%
%ADD13O,2.85201X1.55201*%
%ADD14RoundRect,0.08109X-0.36026X-0.16026X-0.36026X0.16026*%
%ADD15C,0.65161*%
%ADD16O,1.7016X1.1016*%
%ADD17RoundRect,0.09428X0.60742X-0.85416X-0.60742X-0.85416*%
%ADD18RoundRect,0.09138X0.40835X-0.43712X-0.40835X-0.43712*%
%ADD19RoundRect,0.09422X0.7649X-0.7649X-0.7649X-0.7649*%
%ADD20RoundRect,0.09428X0.85416X0.60742X0.85416X-0.60742*%
G75*


G04 Pad Start*
G54D10*
G01X-20700200Y4651200D03*
G01X-20700200Y4251201D03*
G01X-20700200Y3851202D03*
G01X-20700200Y3451202D03*
G01X-20700200Y3051203D03*
G01X-20700200Y2651204D03*
G01X-20700200Y2251205D03*
G01X-20700200Y1851206D03*
G01X-20400188Y4651200D03*
G01X-20400188Y4251201D03*
G01X-20400188Y3851202D03*
G01X-20400188Y3451202D03*
G01X-20400188Y3051203D03*
G01X-20400188Y2651204D03*
G01X-20400188Y2251205D03*
G54D11*
G01X-20400213Y1851206D03*
G54D12*
G01X-21517597Y1624203D03*
G01X-21517597Y1726184D03*
G01X-21517597Y1828190D03*
G01X-21517597Y1930197D03*
G01X-21517597Y2032203D03*
G01X-21517597Y2134184D03*
G01X-21517597Y2236191D03*
G01X-21517597Y2338197D03*
G54D13*
G01X-22627603Y2686202D03*
G01X-22627603Y1276198D03*
G01X-22037611Y2686202D03*
G01X-22037611Y1276198D03*
G54D14*
G01X-22094342Y5042014D03*
G01X-22094342Y4992002D03*
G01X-22094342Y4941989D03*
G01X-22094342Y4892002D03*
G01X-22094342Y4841989D03*
G01X-22094342Y4792002D03*
G01X-22094342Y4741990D03*
G01X-22094342Y4692002D03*
G01X-22094342Y4641990D03*
G01X-22094342Y4592003D03*
G01X-22094342Y4541990D03*
G01X-22094342Y4492003D03*
G54D15*
G01X-22205848Y4457510D03*
G01X-22205848Y5067516D03*
G01X-22275851Y5002517D03*
G01X-22275851Y4522508D03*
G01X-22275851Y4922507D03*
G01X-22275851Y4602518D03*
G01X-22275851Y4842523D03*
G01X-22275851Y4682503D03*
G01X-22205848Y4882502D03*
G01X-22205848Y4642523D03*
G01X-22205848Y4802518D03*
G01X-22205848Y4722508D03*
G54D16*
G01X-22124848Y4312501D03*
G01X-22124848Y5212499D03*
G01X-22685858Y4312501D03*
G01X-22685858Y5212499D03*
G54D17*
G01X-22283979Y3848100D03*
G01X-21988221Y3848100D03*
G54D18*
G01X-22528936Y4076700D03*
G01X-22378264Y4076700D03*
G54D19*
G01X-22138094Y3251200D03*
G01X-22388106Y3251200D03*
G54D20*
G01X-21145500Y1858721D03*
G01X-21145500Y2154479D03*
G04 Pad End*

M02*

