G04 Layer: TopLayer*
G04 EasyEDA Pro v2.2.37.7, 2025-04-21 16:56:55*
G04 Gerber Generator version 0.3*
G04 Scale: 100 percent, Rotated: No, Reflected: No*
G04 Dimensions in millimeters*
G04 Leading zeros omitted, absolute positions, 4 integers and 5 decimals*
%FSLAX45Y45*%
%MOMM*%
%ADD10C,1.8*%
%ADD11R,1.8X1.8*%
%ADD12R,3.19999X0.55001*%
%ADD13O,2.75001X1.45001*%
%ADD14R,0.7X0.3*%
%ADD15C,0.55001*%
%ADD16O,1.6X1.0*%
%ADD17R,1.20752X1.70101*%
%ADD18R,0.80648X0.86401*%
%ADD19R,1.524X1.524*%
%ADD20R,1.70101X1.20752*%
%ADD21C,0.61*%
%ADD22C,0.254*%
%ADD23C,0.762*%
%ADD24C,0.3048*%
%ADD25C,0.508*%
G75*


G04 Pad Start*
G54D10*
G01X-20700200Y4651200D03*
G01X-20700200Y4251201D03*
G01X-20700200Y3851202D03*
G01X-20700200Y3451202D03*
G01X-20700200Y3051203D03*
G01X-20700200Y2651204D03*
G01X-20700200Y2251205D03*
G01X-20700200Y1851206D03*
G01X-20400188Y4651200D03*
G01X-20400188Y4251201D03*
G01X-20400188Y3851202D03*
G01X-20400188Y3451202D03*
G01X-20400188Y3051203D03*
G01X-20400188Y2651204D03*
G01X-20400188Y2251205D03*
G54D11*
G01X-20400213Y1851206D03*
G54D12*
G01X-21517597Y1624203D03*
G01X-21517597Y1726184D03*
G01X-21517597Y1828190D03*
G01X-21517597Y1930197D03*
G01X-21517597Y2032203D03*
G01X-21517597Y2134184D03*
G01X-21517597Y2236191D03*
G01X-21517597Y2338197D03*
G54D13*
G01X-22627603Y2686202D03*
G01X-22627603Y1276198D03*
G01X-22037611Y2686202D03*
G01X-22037611Y1276198D03*
G54D14*
G01X-22094342Y5042014D03*
G01X-22094342Y4992002D03*
G01X-22094342Y4941989D03*
G01X-22094342Y4892002D03*
G01X-22094342Y4841989D03*
G01X-22094342Y4792002D03*
G01X-22094342Y4741990D03*
G01X-22094342Y4692002D03*
G01X-22094342Y4641990D03*
G01X-22094342Y4592003D03*
G01X-22094342Y4541990D03*
G01X-22094342Y4492003D03*
G54D15*
G01X-22205848Y4457510D03*
G01X-22205848Y5067516D03*
G01X-22275851Y5002517D03*
G01X-22275851Y4522508D03*
G01X-22275851Y4922507D03*
G01X-22275851Y4602518D03*
G01X-22275851Y4842523D03*
G01X-22275851Y4682503D03*
G01X-22205848Y4882502D03*
G01X-22205848Y4642523D03*
G01X-22205848Y4802518D03*
G01X-22205848Y4722508D03*
G54D16*
G01X-22124848Y4312501D03*
G01X-22124848Y5212499D03*
G01X-22685858Y4312501D03*
G01X-22685858Y5212499D03*
G54D17*
G01X-22283979Y3848100D03*
G01X-21988221Y3848100D03*
G54D18*
G01X-22528936Y4076700D03*
G01X-22378264Y4076700D03*
G54D19*
G01X-22138094Y3251200D03*
G01X-22388106Y3251200D03*
G54D20*
G01X-21145500Y1858721D03*
G01X-21145500Y2154479D03*
G04 Pad End*

G04 Via Start*
G54D21*
G01X-22522872Y2833465D03*
G01X-21891142Y4552302D03*
G01X-22234042Y4082402D03*
G01X-22425700Y4195267D03*
G01X-22494260Y3860800D03*
G04 Via End*

G04 Track Start*
G54D22*
G01X-22094342Y4541990D02*
G01X-22043542Y4541990D01*
G01X-21992742Y4491190D01*
G01X-22094342Y4592003D02*
G01X-22018142Y4592003D01*
G01X-21941942Y4515803D01*
G54D23*
G01X-22037611Y1276198D02*
G01X-22627603Y1276198D01*
G54D24*
G01X-22125330Y5042014D02*
G01X-22125330Y5212017D01*
G54D22*
G01X-22125330Y5042014D02*
G01X-22094342Y5042014D01*
G54D25*
G01X-21517597Y1624203D02*
G01X-21032597Y1624203D01*
G01X-20942300Y1714500D02*
G01X-20942300Y1917700D01*
G01X-21032597Y1624203D02*
G01X-20942300Y1714500D01*
G01X-21517597Y2134184D02*
G01X-21165795Y2134184D01*
G01X-21145500Y2154479D01*
G01X-21311588Y2032203D02*
G01X-21517597Y2032203D01*
G01X-21056600Y2032000D02*
G01X-21311385Y2032000D01*
G01X-21311588Y2032203D01*
G54D24*
G01X-20738300Y1851206D02*
G01X-20993100Y2106006D01*
G01X-20700200Y1851205D02*
G01X-20738300Y1851206D01*
G01X-20993100Y2106006D02*
G01X-20993100Y3924300D01*
G01X-22010789Y4941989D01*
G01X-22094342Y4941989D01*
G54D22*
G01X-21941942Y4515803D02*
G01X-21941942Y3915258D01*
G01X-22009100Y3848100D01*
G01X-22009100Y3380194D01*
G01X-22138094Y3251200D01*
G01X-21992742Y4491190D02*
G01X-21992742Y4232758D01*
G01X-22094342Y4492003D02*
G01X-22171355Y4492003D01*
G01X-22205848Y4457510D01*
G01X-22094342Y4641990D02*
G01X-22205315Y4641990D01*
G01X-22205848Y4642523D01*
G54D24*
G01X-22094342Y4692002D02*
G01X-22030842Y4692002D01*
G01X-21891142Y4552302D01*
G54D22*
G01X-21992742Y4232758D02*
G01X-22275800Y3949700D01*
G01X-22275800Y3363506D01*
G01X-22388093Y3251200D01*
G54D24*
G01X-22169927Y4882502D02*
G01X-22205848Y4882502D01*
G01X-22094342Y4892002D02*
G01X-22160428Y4892002D01*
G01X-22169927Y4882502D01*
G54D22*
G01X-22091626Y4991100D02*
G01X-22094342Y4992002D01*
G01X-22093441Y4991100D02*
G01X-22094342Y4992002D01*
G54D25*
G01X-20942300Y1917700D02*
G01X-21056600Y2032000D01*
G54D23*
G01X-21517597Y1482103D02*
G01X-21736202Y1263498D01*
G01X-22024911Y1263498D01*
G01X-22037611Y1276198D01*
G01X-21517597Y1624203D02*
G01X-21517597Y1482103D01*
G54D24*
G01X-21517597Y1828190D02*
G01X-21529688Y1816100D01*
G01X-21678900Y1816100D01*
G01X-21742400Y1879600D01*
G01X-20400213Y1851205D02*
G01X-20400213Y1852370D01*
G01X-20425613Y1877769D01*
G01X-20521369Y1877769D01*
G01X-20874399Y2230799D01*
G01X-20874399Y3895663D01*
G01X-21969836Y4991100D01*
G01X-22091626Y4991100D01*
G01X-21742400Y1879600D02*
G01X-21742400Y2057400D01*
G01X-22518465Y2833465D01*
G01X-22522872Y2833465D01*
G54D25*
G01X-22627603Y2686202D02*
G01X-22606000Y2707805D01*
G01X-22606000Y3999636D01*
G01X-22528936Y4076700D01*
G01X-22520504Y4085133D02*
G01X-22425700Y4179937D01*
G01X-22425700Y4195267D01*
G54D24*
G01X-22234042Y4082402D02*
G01X-22372561Y4082402D01*
G01X-22378264Y4076700D01*
G54D25*
G01X-21516988Y1828800D02*
G01X-21188121Y1828800D01*
G01X-21158200Y1858721D01*
G01X-21145500Y1858721D01*
G01X-21517597Y1828190D02*
G01X-21516988Y1828800D01*
G54D24*
G01X-21517597Y2134184D02*
G01X-21704884Y2134184D01*
G01X-22494260Y2923560D01*
G01X-22494260Y3161905D01*
G01X-22494746Y3162391D01*
G01X-22494746Y3340009D01*
G01X-22494260Y3340495D01*
G01X-22494260Y3860800D01*
G54D25*
G01X-22425700Y5184100D02*
G01X-22425700Y4195267D01*
G01X-22374637Y5227498D02*
G01X-22425700Y5184100D01*
G01X-22124848Y5212499D02*
G01X-22139846Y5227498D01*
G01X-22374637Y5227498D01*
G54D22*
G01X-22205848Y5067516D02*
G01X-22201530Y5042014D01*
G54D24*
G01X-22201530Y5042014D02*
G01X-22125330Y5042014D01*
G04 Track End*

M02*

