G04 Layer: DrillDrawingLayer*
G04 EasyEDA Pro v2.2.37.7, 2025-04-21 16:56:55*
G04 Gerber Generator version 0.3*
G04 Scale: 100 percent, Rotated: No, Reflected: No*
G04 Dimensions in millimeters*
G04 Leading zeros omitted, absolute positions, 4 integers and 5 decimals*
%FSLAX45Y45*%
%MOMM*%
%AMIconRect*4,1,4,0.2,-0.2,-0.2,-0.2,-0.2,0.2,0.2,0.2,0.2,-0.2,0*4,0,4,0.166667,-0.166667,0.166667,0.166667,-0.166667,0.166667,-0.166667,-0.166667,0.166667,-0.166667,0*%
%AMIconTriangle*4,1,3,-0.242567,0.171767,0.242567,0.171767,0,-0.2706,-0.242567,0.171767,0*4,0,3,-0.189767,0.1386,0,-0.1953,0.190167,0.1386,-0.189767,0.1386,0*%
%AMIconStar6*4,1,12,0.0862,0.1492,0.213233,0.123367,0.172367,0,0.213233,-0.1229,0.0862,-0.148733,0,-0.245767,-0.085767,-0.148733,-0.213267,-0.1229,-0.171933,0,-0.213267,0.1229,-0.085767,0.1492,0,0.245767,0.0862,0.1492,0*4,0,12,-0.000333,0.195333,-0.064333,0.122667,-0.169667,0.097667,-0.138333,-0.005333,-0.169667,-0.098,-0.064333,-0.122667,-0.000333,-0.195667,0.064333,-0.122667,0.169667,-0.098,0.138667,0.005,0.169667,0.098,0.064333,0.122333,-0.000333,0.195333,0*%
%AMIconStar4*4,1,8,-0.222667,0.222667,0,0.144667,0.222667,0.222667,0.144667,0,0.222667,-0.222667,0,-0.144667,-0.217433,-0.222667,-0.144667,0,-0.222667,0.222667,0*4,0,8,0.166667,-0.166667,0.108,0,0.166667,0.166667,0,0.108,-0.166667,0.166667,-0.108,0,-0.166667,-0.166667,0,-0.108,0.166667,-0.166667,0*%
%AMIconPlus*4,1,12,0.124,-0.2,-0.124,-0.2,-0.124,-0.124,-0.2,-0.124,-0.2,0.124,-0.124,0.124,-0.124,0.2,0.124,0.2,0.124,0.124,0.2,0.124,0.2,-0.124,0.124,-0.124,0.124,-0.2,0*4,0,12,0.090667,-0.166667,0.090667,-0.090667,0.166667,-0.090667,0.166667,0.090667,0.090667,0.090667,0.090667,0.166667,-0.090667,0.166667,-0.090667,0.090667,-0.166667,0.090667,-0.166667,-0.090667,-0.090667,-0.090667,-0.090667,-0.166667,0.090667,-0.166667,0*%
%AMIconX*4,1,16,0.2,-0.2,0.054533,-0.2,0,-0.145467,-0.054533,-0.2,-0.2,-0.2,-0.2,-0.054533,-0.145467,0,-0.2,0.054533,-0.2,0.2,-0.054533,0.2,0,0.145467,0.054533,0.2,0.2,0.2,0.2,0.054533,0.145467,0,0.2,-0.054533,0.2,-0.2,0*4,0,16,0.1668,-0.1664,0.1668,-0.068467,0.097933,0.000067,0.1668,0.068467,0.1668,0.1665,0.068467,0.1665,0,0.097933,-0.068467,0.1665,-0.1668,0.1665,-0.1668,0.068467,-0.097933,0.000067,-0.1668,-0.068467,-0.1668,-0.1664,-0.068467,-0.1664,0,-0.097933,0.068467,-0.1664,0.1668,-0.1664,0*%
%AMIconDiamond*4,1,4,0,-0.26,-0.26,0,0,0.26,0.26,0,0,-0.26,0*4,0,4,0,-0.203433,0.203433,0,0,0.2036,-0.203433,0,0,-0.203433,0*%
%ADD10IconRect*%
%ADD11C,0.44X0.373333*%
%ADD12IconTriangle*%
%ADD13IconStar6*%
%ADD14IconStar4*%
%ADD15IconPlus*%
%ADD16IconX*%
%ADD17IconDiamond*%
G75*


G04 Drill Drawing Start*
G54D10*
G01X-22388093Y3251200D03*
G01X-22138094Y3251200D03*
G54D11*
G01X-21847619Y1461186D03*
G01X-21847619Y2501189D03*
G54D12*
G01X-22275851Y4390022D03*
G01X-22275851Y5135004D03*
G54D13*
G01X-22627605Y1276198D03*
G01X-22627605Y2686195D03*
G01X-22037606Y1276198D03*
G01X-22037606Y2686195D03*
G54D14*
G01X-22685858Y4312501D03*
G01X-22685858Y5212499D03*
G01X-22124848Y4312501D03*
G01X-22124848Y5212499D03*
G54D15*
G01X-22522872Y2833465D03*
G01X-22494260Y3860800D03*
G01X-22425700Y4195267D03*
G01X-22234042Y4082402D03*
G01X-21891142Y4552302D03*
G54D16*
G01X-22275851Y4522508D03*
G01X-22275851Y4602518D03*
G01X-22275851Y4682503D03*
G01X-22275851Y4842523D03*
G01X-22275851Y4922507D03*
G01X-22275851Y5002517D03*
G01X-22205848Y4457510D03*
G01X-22205848Y4642523D03*
G01X-22205848Y4722508D03*
G01X-22205848Y4802518D03*
G01X-22205848Y4882502D03*
G01X-22205848Y5067516D03*
G54D17*
G01X-20700200Y1851201D03*
G01X-20700200Y2251200D03*
G01X-20700200Y2651199D03*
G01X-20700200Y3051201D03*
G01X-20700200Y3451200D03*
G01X-20700200Y3851199D03*
G01X-20700200Y4251201D03*
G01X-20700200Y4651200D03*
G01X-20400200Y1851201D03*
G01X-20400200Y2251200D03*
G01X-20400200Y2651199D03*
G01X-20400200Y3051201D03*
G01X-20400200Y3451200D03*
G01X-20400200Y3851199D03*
G01X-20400200Y4251201D03*
G01X-20400200Y4651200D03*
G04 Drill Drawing End*

M02*

