G04 Layer: TopSilkscreenLayer*
G04 EasyEDA Pro v2.2.37.7, 2025-04-21 16:56:55*
G04 Gerber Generator version 0.3*
G04 Scale: 100 percent, Rotated: No, Reflected: No*
G04 Dimensions in millimeters*
G04 Leading zeros omitted, absolute positions, 4 integers and 5 decimals*
%FSLAX45Y45*%
%MOMM*%
%ADD10C,0.127*%
%ADD11C,0.0508*%
%ADD12C,0.1524*%
%ADD13C,0.254*%
%ADD14C,0.8*%
G75*


G04 Image Start*
G36*
G01X-20891881Y4457051D02*
G01X-20892165Y4459978D01*
G01X-20892757Y4462333D01*
G01X-20893348Y4464688D01*
G01X-20894489Y4467570D01*
G01X-20895629Y4470451D01*
G01X-20897684Y4473580D01*
G01X-20899738Y4476710D01*
G01X-20902024Y4478995D01*
G01X-20904309Y4481280D01*
G01X-20906546Y4482857D01*
G01X-20908783Y4484435D01*
G01X-21124030Y4608961D01*
G01X-21339277Y4733487D01*
G01X-21341695Y4734508D01*
G01X-21344113Y4735529D01*
G01X-21347335Y4736315D01*
G01X-21350558Y4737100D01*
G01X-21355289Y4737076D01*
G01X-21360020Y4737052D01*
G01X-21363658Y4736111D01*
G01X-21367298Y4735169D01*
G01X-21370360Y4733700D01*
G01X-21373423Y4732231D01*
G01X-21375819Y4730634D01*
G01X-21378215Y4729037D01*
G01X-21380849Y4726474D01*
G01X-21383483Y4723910D01*
G01X-21385623Y4720648D01*
G01X-21387763Y4717385D01*
G01X-21388949Y4714533D01*
G01X-21390135Y4711681D01*
G01X-21390818Y4708336D01*
G01X-21391500Y4704992D01*
G01X-21391407Y4452605D01*
G01X-21391316Y4201675D01*
G01X-21383309Y4201675D01*
G01X-21383309Y4453578D01*
G01X-21383309Y4705116D01*
G01X-21375502Y4705116D01*
G01X-21375403Y4453578D01*
G01X-21355472Y4453578D01*
G01X-21355469Y4457767D01*
G01X-21337381Y4457767D01*
G01X-21337381Y4453578D01*
G01X-21337381Y4449388D01*
G01X-21336941Y4447203D01*
G01X-21336501Y4445017D01*
G01X-21335745Y4442649D01*
G01X-21334990Y4440281D01*
G01X-21333627Y4437549D01*
G01X-21332264Y4434817D01*
G01X-21330593Y4432592D01*
G01X-21328922Y4430367D01*
G01X-21326454Y4428038D01*
G01X-21323986Y4425710D01*
G01X-21321876Y4424310D01*
G01X-21319767Y4422911D01*
G01X-21317111Y4421683D01*
G01X-21314456Y4420455D01*
G01X-21311582Y4419622D01*
G01X-21308709Y4418788D01*
G01X-21302523Y4418789D01*
G01X-21296337Y4418789D01*
G01X-21294031Y4419427D01*
G01X-21291724Y4420065D01*
G01X-21289000Y4421157D01*
G01X-21286276Y4422249D01*
G01X-21283664Y4423936D01*
G01X-21281053Y4425623D01*
G01X-21278961Y4427433D01*
G01X-21276868Y4429243D01*
G01X-21274625Y4432212D01*
G01X-21272382Y4435181D01*
G01X-21270816Y4438476D01*
G01X-21269251Y4441770D01*
G01X-21268490Y4444851D01*
G01X-21267729Y4447931D01*
G01X-21267576Y4452485D01*
G01X-21267423Y4457038D01*
G01X-21267426Y4457053D01*
G01X-21238295Y4457053D01*
G01X-21238289Y4453767D01*
G01X-21238284Y4450481D01*
G01X-21237736Y4448155D01*
G01X-21237189Y4445829D01*
G01X-21235705Y4442974D01*
G01X-21234221Y4440118D01*
G01X-21231950Y4437832D01*
G01X-21229679Y4435546D01*
G01X-21227346Y4434170D01*
G01X-21225012Y4432794D01*
G01X-21222647Y4432058D01*
G01X-21220282Y4431321D01*
G01X-21213208Y4430785D01*
G01X-21206133Y4430250D01*
G01X-21182640Y4428248D01*
G01X-21159146Y4426246D01*
G01X-21148593Y4425348D01*
G01X-21138040Y4424450D01*
G01X-21103746Y4421528D01*
G01X-21069452Y4418606D01*
G01X-21067131Y4418606D01*
G01X-21064810Y4418606D01*
G01X-21061696Y4419150D01*
G01X-21058582Y4419693D01*
G01X-21055510Y4420806D01*
G01X-21052438Y4421919D01*
G01X-21049388Y4423785D01*
G01X-21046337Y4425650D01*
G01X-21043201Y4428777D01*
G01X-21040064Y4431903D01*
G01X-21038365Y4434537D01*
G01X-21036667Y4437172D01*
G01X-21035573Y4439746D01*
G01X-21034479Y4442319D01*
G01X-21033759Y4445125D01*
G01X-21033039Y4447931D01*
G01X-21032894Y4452303D01*
G01X-21032749Y4456674D01*
G01X-21032915Y4457767D01*
G01X-21032915Y4457767D01*
G01X-21033080Y4458860D01*
G01X-21033620Y4461327D01*
G01X-21034159Y4463794D01*
G01X-21035077Y4466236D01*
G01X-21035995Y4468678D01*
G01X-21037283Y4470982D01*
G01X-21038570Y4473287D01*
G01X-21040764Y4475909D01*
G01X-21042957Y4478531D01*
G01X-21044786Y4480095D01*
G01X-21046615Y4481658D01*
G01X-21048201Y4482751D01*
G01X-21049787Y4483843D01*
G01X-21052793Y4485286D01*
G01X-21055799Y4486729D01*
G01X-21058346Y4487486D01*
G01X-21060893Y4488243D01*
G01X-21065078Y4488424D01*
G01X-21069263Y4488604D01*
G01X-21106199Y4485480D01*
G01X-21143135Y4482355D01*
G01X-21173703Y4479802D01*
G01X-21204270Y4477249D01*
G01X-21212292Y4476527D01*
G01X-21220314Y4475804D01*
G01X-21222299Y4475220D01*
G01X-21224285Y4474636D01*
G01X-21226830Y4473305D01*
G01X-21229375Y4471974D01*
G01X-21231590Y4469788D01*
G01X-21233805Y4467602D01*
G01X-21235302Y4465053D01*
G01X-21236799Y4462502D01*
G01X-21237547Y4459778D01*
G01X-21238295Y4457053D01*
G01X-21267426Y4457053D01*
G01X-21267958Y4459865D01*
G01X-21267958Y4459865D01*
G01X-21268493Y4462692D01*
G01X-21269245Y4464925D01*
G01X-21269996Y4467158D01*
G01X-21271229Y4469608D01*
G01X-21272461Y4472058D01*
G01X-21274665Y4474985D01*
G01X-21276868Y4477912D01*
G01X-21278961Y4479722D01*
G01X-21281053Y4481532D01*
G01X-21283600Y4483177D01*
G01X-21286148Y4484822D01*
G01X-21288398Y4485769D01*
G01X-21290649Y4486717D01*
G01X-21293493Y4487542D01*
G01X-21296337Y4488367D01*
G01X-21302523Y4488367D01*
G01X-21308709Y4488367D01*
G01X-21311582Y4487534D01*
G01X-21314456Y4486701D01*
G01X-21317111Y4485472D01*
G01X-21319767Y4484244D01*
G01X-21321876Y4482845D01*
G01X-21323986Y4481445D01*
G01X-21326454Y4479117D01*
G01X-21328922Y4476789D01*
G01X-21330593Y4474564D01*
G01X-21332264Y4472338D01*
G01X-21333627Y4469606D01*
G01X-21334990Y4466874D01*
G01X-21335745Y4464506D01*
G01X-21336501Y4462138D01*
G01X-21336941Y4459953D01*
G01X-21337381Y4457767D01*
G01X-21355469Y4457767D01*
G01X-21355380Y4577262D01*
G01X-21355289Y4700947D01*
G01X-21141757Y4577394D01*
G01X-20928225Y4453840D01*
G01X-20928333Y4453515D01*
G01X-20928441Y4453190D01*
G01X-21141865Y4329699D01*
G01X-21141865Y4329699D01*
G01X-21355289Y4206209D01*
G01X-21355380Y4329893D01*
G01X-21355472Y4453578D01*
G01X-21375403Y4453578D01*
G01X-21375403Y4452849D01*
G01X-21375303Y4200582D01*
G01X-21373706Y4197303D01*
G01X-21372109Y4194025D01*
G01X-21369701Y4191657D01*
G01X-21367294Y4189289D01*
G01X-21365112Y4188136D01*
G01X-21362931Y4186982D01*
G01X-21360695Y4186406D01*
G01X-21358459Y4185828D01*
G01X-21355393Y4185828D01*
G01X-21352328Y4185828D01*
G01X-21350351Y4186415D01*
G01X-21348375Y4187003D01*
G01X-21346555Y4187925D01*
G01X-21344736Y4188847D01*
G01X-21166243Y4292122D01*
G01X-20987749Y4395396D01*
G01X-20952815Y4415605D01*
G01X-20917881Y4435814D01*
G01X-20915644Y4437402D01*
G01X-20913407Y4438989D01*
G01X-20911876Y4440910D01*
G01X-20910345Y4442831D01*
G01X-20909514Y4444470D01*
G01X-20908682Y4446110D01*
G01X-20908096Y4448088D01*
G01X-20907509Y4450067D01*
G01X-20907531Y4453735D01*
G01X-20907552Y4457403D01*
G01X-20908399Y4459850D01*
G01X-20908399Y4459850D01*
G01X-20909247Y4462298D01*
G01X-20910258Y4464040D01*
G01X-20911270Y4465781D01*
G01X-20913507Y4467967D01*
G01X-20915745Y4470153D01*
G01X-21130604Y4594426D01*
G01X-21345463Y4718700D01*
G01X-21347283Y4719599D01*
G01X-21349103Y4720498D01*
G01X-21351104Y4720974D01*
G01X-21353106Y4721450D01*
G01X-21356017Y4721410D01*
G01X-21358928Y4721369D01*
G01X-21361293Y4720633D01*
G01X-21363658Y4719896D01*
G01X-21365842Y4718586D01*
G01X-21368025Y4717275D01*
G01X-21369618Y4715749D01*
G01X-21371210Y4714223D01*
G01X-21372565Y4712157D01*
G01X-21373920Y4710090D01*
G01X-21374711Y4707603D01*
G01X-21375502Y4705116D01*
G01X-21383309Y4705116D01*
G01X-21383309Y4705480D01*
G01X-21382672Y4707848D01*
G01X-21382035Y4710216D01*
G01X-21380345Y4713677D01*
G01X-21378656Y4717138D01*
G01X-21375160Y4720643D01*
G01X-21371664Y4724149D01*
G01X-21367843Y4725988D01*
G01X-21364023Y4727826D01*
G01X-21361293Y4728430D01*
G01X-21358564Y4729033D01*
G01X-21354925Y4729016D01*
G01X-21351286Y4729000D01*
G01X-21348504Y4728284D01*
G01X-21345723Y4727569D01*
G01X-21343488Y4726440D01*
G01X-21341253Y4725311D01*
G01X-21127747Y4601800D01*
G01X-20914241Y4478289D01*
G01X-20912240Y4476981D01*
G01X-20910238Y4475673D01*
G01X-20908122Y4473654D01*
G01X-20906005Y4471635D01*
G01X-20904430Y4469254D01*
G01X-20902855Y4466874D01*
G01X-20901943Y4464688D01*
G01X-20901031Y4462502D01*
G01X-20900583Y4460863D01*
G01X-20900135Y4459224D01*
G01X-20899845Y4457220D01*
G01X-20899556Y4455217D01*
G01X-20899729Y4451905D01*
G01X-20899903Y4448593D01*
G01X-20900382Y4446805D01*
G01X-20900382Y4446805D01*
G01X-20900861Y4445017D01*
G01X-20901798Y4442731D01*
G01X-20902735Y4440444D01*
G01X-20904399Y4437939D01*
G01X-20906063Y4435433D01*
G01X-20908301Y4433359D01*
G01X-20910539Y4431285D01*
G01X-20912390Y4430079D01*
G01X-20914241Y4428872D01*
G01X-21081272Y4332250D01*
G01X-21248302Y4235628D01*
G01X-21294783Y4208733D01*
G01X-21341264Y4181839D01*
G01X-21343413Y4180753D01*
G01X-21345561Y4179668D01*
G01X-21348401Y4178923D01*
G01X-21351241Y4178178D01*
G01X-21355117Y4178178D01*
G01X-21358993Y4178178D01*
G01X-21361724Y4178877D01*
G01X-21364454Y4179577D01*
G01X-21366912Y4180692D01*
G01X-21369369Y4181807D01*
G01X-21371649Y4183436D01*
G01X-21373929Y4185065D01*
G01X-21376318Y4187648D01*
G01X-21378707Y4190231D01*
G01X-21380362Y4193585D01*
G01X-21382017Y4196939D01*
G01X-21382663Y4199307D01*
G01X-21383309Y4201675D01*
G01X-21391316Y4201675D01*
G01X-21391315Y4200217D01*
G01X-21390455Y4197121D01*
G01X-21389594Y4194025D01*
G01X-21388193Y4191069D01*
G01X-21386793Y4188113D01*
G01X-21384658Y4185240D01*
G01X-21382524Y4182368D01*
G01X-21380027Y4180039D01*
G01X-21377532Y4177710D01*
G01X-21375144Y4176170D01*
G01X-21372756Y4174630D01*
G01X-21370937Y4173723D01*
G01X-21369117Y4172816D01*
G01X-21366206Y4171871D01*
G01X-21363295Y4170927D01*
G01X-21360932Y4170513D01*
G01X-21358569Y4170100D01*
G01X-21354693Y4170121D01*
G01X-21350816Y4170142D01*
G01X-21347958Y4170725D01*
G01X-21345100Y4171308D01*
G01X-21342189Y4172482D01*
G01X-21339277Y4173655D01*
G01X-21281963Y4206832D01*
G01X-21224649Y4240009D01*
G01X-21067080Y4331175D01*
G01X-20909511Y4422341D01*
G01X-20907622Y4423591D01*
G01X-20905733Y4424841D01*
G01X-20903193Y4427195D01*
G01X-20900654Y4429549D01*
G01X-20898847Y4432001D01*
G01X-20897041Y4434453D01*
G01X-20895585Y4437367D01*
G01X-20894129Y4440281D01*
G01X-20893372Y4442737D01*
G01X-20892615Y4445192D01*
G01X-20892058Y4448383D01*
G01X-20891500Y4451574D01*
G01X-20891548Y4452849D01*
G01X-20891597Y4454124D01*
G01X-20891881Y4457051D01*
G37*
G04 Image End*

G04 Text Start*
G54D10*
G01X-21410676Y4756150D02*
G01X-21502370Y4734306D01*
G01X-21410676Y4712462D02*
G01X-21502370Y4734306D01*
G01X-21410676Y4712462D02*
G01X-21502370Y4690618D01*
G01X-21410676Y4668774D02*
G01X-21502370Y4690618D01*
G01X-21410676Y4600194D02*
G01X-21502370Y4634992D01*
G01X-21410676Y4600194D02*
G01X-21502370Y4565142D01*
G01X-21471636Y4622038D02*
G01X-21471636Y4578350D01*
G01X-21410676Y4531360D02*
G01X-21502370Y4531360D01*
G01X-21410676Y4531360D02*
G01X-21410676Y4492244D01*
G01X-21414994Y4479036D01*
G01X-21419312Y4474718D01*
G01X-21428202Y4470400D01*
G01X-21436838Y4470400D01*
G01X-21445474Y4474718D01*
G01X-21449792Y4479036D01*
G01X-21454364Y4492244D01*
G01X-21454364Y4531360D01*
G01X-21454364Y4500880D02*
G01X-21502370Y4470400D01*
G01X-21410676Y4436618D02*
G01X-21502370Y4436618D01*
G01X-21410676Y4436618D02*
G01X-21502370Y4375658D01*
G01X-21410676Y4375658D02*
G01X-21502370Y4375658D01*
G01X-21410676Y4341876D02*
G01X-21502370Y4341876D01*
G01X-21410676Y4308094D02*
G01X-21502370Y4308094D01*
G01X-21410676Y4308094D02*
G01X-21502370Y4247134D01*
G01X-21410676Y4247134D02*
G01X-21502370Y4247134D01*
G01X-21432520Y4148074D02*
G01X-21423630Y4152392D01*
G01X-21414994Y4161028D01*
G01X-21410676Y4169918D01*
G01X-21410676Y4187190D01*
G01X-21414994Y4196080D01*
G01X-21423630Y4204716D01*
G01X-21432520Y4209034D01*
G01X-21445474Y4213352D01*
G01X-21467318Y4213352D01*
G01X-21480526Y4209034D01*
G01X-21489162Y4204716D01*
G01X-21498052Y4196080D01*
G01X-21502370Y4187190D01*
G01X-21502370Y4169918D01*
G01X-21498052Y4161028D01*
G01X-21489162Y4152392D01*
G01X-21480526Y4148074D01*
G01X-21467318Y4148074D01*
G01X-21467318Y4169918D02*
G01X-21467318Y4148074D01*
G54D11*
G01X-21528532Y5110226D02*
G01X-21531326Y5116068D01*
G01X-21537422Y5122164D01*
G01X-21543518Y5125212D01*
G01X-21552662Y5128260D01*
G01X-21567648Y5128260D01*
G01X-21576792Y5125212D01*
G01X-21582634Y5122164D01*
G01X-21588730Y5116068D01*
G01X-21591778Y5110226D01*
G01X-21591778Y5098034D01*
G01X-21588730Y5091938D01*
G01X-21582634Y5086096D01*
G01X-21576792Y5083048D01*
G01X-21567648Y5080000D01*
G01X-21552662Y5080000D01*
G01X-21543518Y5083048D01*
G01X-21537422Y5086096D01*
G01X-21531326Y5091938D01*
G01X-21528532Y5098034D01*
G01X-21528532Y5110226D01*
G01X-21549614Y5060442D02*
G01X-21591778Y5060442D01*
G01X-21561552Y5060442D02*
G01X-21552662Y5051298D01*
G01X-21549614Y5045456D01*
G01X-21549614Y5036312D01*
G01X-21552662Y5030216D01*
G01X-21561552Y5027168D01*
G01X-21591778Y5027168D01*
G01X-21528532Y5007610D02*
G01X-21591778Y5007610D01*
G01X-21549614Y4985004D02*
G01X-21591778Y4966970D01*
G01X-21549614Y4948936D02*
G01X-21591778Y4966970D01*
G01X-21603716Y4973066D01*
G01X-21609812Y4978908D01*
G01X-21612860Y4985004D01*
G01X-21612860Y4988052D01*
G01X-21528532Y4837684D02*
G01X-21528532Y4843780D01*
G01X-21531326Y4849622D01*
G01X-21540470Y4852670D01*
G01X-21591778Y4852670D01*
G01X-21549614Y4861814D02*
G01X-21549614Y4840732D01*
G01X-21549614Y4803140D02*
G01X-21552662Y4808982D01*
G01X-21558504Y4815078D01*
G01X-21567648Y4818126D01*
G01X-21573744Y4818126D01*
G01X-21582634Y4815078D01*
G01X-21588730Y4808982D01*
G01X-21591778Y4803140D01*
G01X-21591778Y4793996D01*
G01X-21588730Y4787900D01*
G01X-21582634Y4781804D01*
G01X-21573744Y4779010D01*
G01X-21567648Y4779010D01*
G01X-21558504Y4781804D01*
G01X-21552662Y4787900D01*
G01X-21549614Y4793996D01*
G01X-21549614Y4803140D01*
G01X-21549614Y4759452D02*
G01X-21591778Y4759452D01*
G01X-21567648Y4759452D02*
G01X-21558504Y4756404D01*
G01X-21552662Y4750308D01*
G01X-21549614Y4744466D01*
G01X-21549614Y4735322D01*
G01X-21549614Y4648200D02*
G01X-21579586Y4648200D01*
G01X-21588730Y4645152D01*
G01X-21591778Y4639056D01*
G01X-21591778Y4630166D01*
G01X-21588730Y4624070D01*
G01X-21579586Y4614926D01*
G01X-21549614Y4614926D02*
G01X-21591778Y4614926D01*
G01X-21558504Y4562094D02*
G01X-21552662Y4565142D01*
G01X-21549614Y4574286D01*
G01X-21549614Y4583176D01*
G01X-21552662Y4592320D01*
G01X-21558504Y4595368D01*
G01X-21564600Y4592320D01*
G01X-21567648Y4586224D01*
G01X-21570696Y4571238D01*
G01X-21573744Y4565142D01*
G01X-21579586Y4562094D01*
G01X-21582634Y4562094D01*
G01X-21588730Y4565142D01*
G01X-21591778Y4574286D01*
G01X-21591778Y4583176D01*
G01X-21588730Y4592320D01*
G01X-21582634Y4595368D01*
G01X-21567648Y4542536D02*
G01X-21567648Y4506214D01*
G01X-21561552Y4506214D01*
G01X-21555456Y4509262D01*
G01X-21552662Y4512310D01*
G01X-21549614Y4518406D01*
G01X-21549614Y4527550D01*
G01X-21552662Y4533392D01*
G01X-21558504Y4539488D01*
G01X-21567648Y4542536D01*
G01X-21573744Y4542536D01*
G01X-21582634Y4539488D01*
G01X-21588730Y4533392D01*
G01X-21591778Y4527550D01*
G01X-21591778Y4518406D01*
G01X-21588730Y4512310D01*
G01X-21582634Y4506214D01*
G01X-21549614Y4404106D02*
G01X-21552662Y4409948D01*
G01X-21558504Y4416044D01*
G01X-21567648Y4419092D01*
G01X-21573744Y4419092D01*
G01X-21582634Y4416044D01*
G01X-21588730Y4409948D01*
G01X-21591778Y4404106D01*
G01X-21591778Y4394962D01*
G01X-21588730Y4388866D01*
G01X-21582634Y4382770D01*
G01X-21573744Y4379976D01*
G01X-21567648Y4379976D01*
G01X-21558504Y4382770D01*
G01X-21552662Y4388866D01*
G01X-21549614Y4394962D01*
G01X-21549614Y4404106D01*
G01X-21549614Y4360418D02*
G01X-21591778Y4360418D01*
G01X-21561552Y4360418D02*
G01X-21552662Y4351274D01*
G01X-21549614Y4345432D01*
G01X-21549614Y4336288D01*
G01X-21552662Y4330192D01*
G01X-21561552Y4327144D01*
G01X-21591778Y4327144D01*
G01X-21528532Y4240022D02*
G01X-21591778Y4240022D01*
G01X-21528532Y4240022D02*
G01X-21591778Y4215892D01*
G01X-21528532Y4191762D02*
G01X-21591778Y4215892D01*
G01X-21528532Y4191762D02*
G01X-21591778Y4191762D01*
G01X-21549614Y4157218D02*
G01X-21552662Y4163060D01*
G01X-21558504Y4169156D01*
G01X-21567648Y4172204D01*
G01X-21573744Y4172204D01*
G01X-21582634Y4169156D01*
G01X-21588730Y4163060D01*
G01X-21591778Y4157218D01*
G01X-21591778Y4148074D01*
G01X-21588730Y4141978D01*
G01X-21582634Y4135882D01*
G01X-21573744Y4133088D01*
G01X-21567648Y4133088D01*
G01X-21558504Y4135882D01*
G01X-21552662Y4141978D01*
G01X-21549614Y4148074D01*
G01X-21549614Y4157218D01*
G01X-21528532Y4077208D02*
G01X-21591778Y4077208D01*
G01X-21558504Y4077208D02*
G01X-21552662Y4083304D01*
G01X-21549614Y4089400D01*
G01X-21549614Y4098544D01*
G01X-21552662Y4104386D01*
G01X-21558504Y4110482D01*
G01X-21567648Y4113530D01*
G01X-21573744Y4113530D01*
G01X-21582634Y4110482D01*
G01X-21588730Y4104386D01*
G01X-21591778Y4098544D01*
G01X-21591778Y4089400D01*
G01X-21588730Y4083304D01*
G01X-21582634Y4077208D01*
G01X-21567648Y4057650D02*
G01X-21567648Y4021328D01*
G01X-21561552Y4021328D01*
G01X-21555456Y4024376D01*
G01X-21552662Y4027424D01*
G01X-21549614Y4033520D01*
G01X-21549614Y4042664D01*
G01X-21552662Y4048506D01*
G01X-21558504Y4054602D01*
G01X-21567648Y4057650D01*
G01X-21573744Y4057650D01*
G01X-21582634Y4054602D01*
G01X-21588730Y4048506D01*
G01X-21591778Y4042664D01*
G01X-21591778Y4033520D01*
G01X-21588730Y4027424D01*
G01X-21582634Y4021328D01*
G01X-21528532Y4001770D02*
G01X-21591778Y4001770D01*
G01X-21537422Y3872484D02*
G01X-21531326Y3878326D01*
G01X-21528532Y3887470D01*
G01X-21528532Y3899662D01*
G01X-21531326Y3908552D01*
G01X-21537422Y3914648D01*
G01X-21543518Y3914648D01*
G01X-21549614Y3911600D01*
G01X-21552662Y3908552D01*
G01X-21555456Y3902456D01*
G01X-21561552Y3884422D01*
G01X-21564600Y3878326D01*
G01X-21567648Y3875532D01*
G01X-21573744Y3872484D01*
G01X-21582634Y3872484D01*
G01X-21588730Y3878326D01*
G01X-21591778Y3887470D01*
G01X-21591778Y3899662D01*
G01X-21588730Y3908552D01*
G01X-21582634Y3914648D01*
G01X-21663914Y5229860D02*
G01X-21706078Y5217668D01*
G01X-21663914Y5205730D02*
G01X-21706078Y5217668D01*
G01X-21663914Y5205730D02*
G01X-21706078Y5193538D01*
G01X-21663914Y5181600D02*
G01X-21706078Y5193538D01*
G01X-21642832Y5162042D02*
G01X-21645626Y5158994D01*
G01X-21642832Y5155946D01*
G01X-21639784Y5158994D01*
G01X-21642832Y5162042D01*
G01X-21663914Y5158994D02*
G01X-21706078Y5158994D01*
G01X-21642832Y5127244D02*
G01X-21693886Y5127244D01*
G01X-21703030Y5124196D01*
G01X-21706078Y5118354D01*
G01X-21706078Y5112258D01*
G01X-21663914Y5136388D02*
G01X-21663914Y5115306D01*
G01X-21642832Y5092700D02*
G01X-21706078Y5092700D01*
G01X-21675852Y5092700D02*
G01X-21666962Y5083556D01*
G01X-21663914Y5077714D01*
G01X-21663914Y5068570D01*
G01X-21666962Y5062474D01*
G01X-21675852Y5059426D01*
G01X-21706078Y5059426D01*
G01X-21663914Y5024882D02*
G01X-21666962Y5030724D01*
G01X-21672804Y5036820D01*
G01X-21681948Y5039868D01*
G01X-21688044Y5039868D01*
G01X-21696934Y5036820D01*
G01X-21703030Y5030724D01*
G01X-21706078Y5024882D01*
G01X-21706078Y5015738D01*
G01X-21703030Y5009642D01*
G01X-21696934Y5003546D01*
G01X-21688044Y5000752D01*
G01X-21681948Y5000752D01*
G01X-21672804Y5003546D01*
G01X-21666962Y5009642D01*
G01X-21663914Y5015738D01*
G01X-21663914Y5024882D01*
G01X-21663914Y4981194D02*
G01X-21693886Y4981194D01*
G01X-21703030Y4978146D01*
G01X-21706078Y4972050D01*
G01X-21706078Y4963160D01*
G01X-21703030Y4957064D01*
G01X-21693886Y4947920D01*
G01X-21663914Y4947920D02*
G01X-21706078Y4947920D01*
G01X-21642832Y4919218D02*
G01X-21693886Y4919218D01*
G01X-21703030Y4916170D01*
G01X-21706078Y4910328D01*
G01X-21706078Y4904232D01*
G01X-21663914Y4928362D02*
G01X-21663914Y4907280D01*
G01X-21642832Y4792980D02*
G01X-21706078Y4817110D01*
G01X-21642832Y4792980D02*
G01X-21706078Y4768850D01*
G01X-21684996Y4807966D02*
G01X-21684996Y4777994D01*
G01X-21642832Y4749292D02*
G01X-21706078Y4749292D01*
G01X-21642832Y4749292D02*
G01X-21642832Y4722114D01*
G01X-21645626Y4712970D01*
G01X-21648674Y4710176D01*
G01X-21654770Y4707128D01*
G01X-21663914Y4707128D01*
G01X-21669756Y4710176D01*
G01X-21672804Y4712970D01*
G01X-21675852Y4722114D01*
G01X-21675852Y4749292D01*
G01X-21691092Y4684522D02*
G01X-21693886Y4687570D01*
G01X-21696934Y4684522D01*
G01X-21693886Y4681474D01*
G01X-21691092Y4684522D01*
G01X-21642832Y4594352D02*
G01X-21706078Y4594352D01*
G01X-21642832Y4594352D02*
G01X-21642832Y4567174D01*
G01X-21645626Y4558030D01*
G01X-21648674Y4555236D01*
G01X-21654770Y4552188D01*
G01X-21663914Y4552188D01*
G01X-21669756Y4555236D01*
G01X-21672804Y4558030D01*
G01X-21675852Y4567174D01*
G01X-21675852Y4594352D01*
G01X-21642832Y4532630D02*
G01X-21706078Y4532630D01*
G01X-21663914Y4513072D02*
G01X-21693886Y4513072D01*
G01X-21703030Y4510024D01*
G01X-21706078Y4503928D01*
G01X-21706078Y4495038D01*
G01X-21703030Y4488942D01*
G01X-21693886Y4479798D01*
G01X-21663914Y4479798D02*
G01X-21706078Y4479798D01*
G01X-21663914Y4423918D02*
G01X-21712174Y4423918D01*
G01X-21721064Y4426966D01*
G01X-21724112Y4430014D01*
G01X-21727160Y4436110D01*
G01X-21727160Y4445254D01*
G01X-21724112Y4451096D01*
G01X-21672804Y4423918D02*
G01X-21666962Y4430014D01*
G01X-21663914Y4436110D01*
G01X-21663914Y4445254D01*
G01X-21666962Y4451096D01*
G01X-21672804Y4457192D01*
G01X-21681948Y4460240D01*
G01X-21688044Y4460240D01*
G01X-21696934Y4457192D01*
G01X-21703030Y4451096D01*
G01X-21706078Y4445254D01*
G01X-21706078Y4436110D01*
G01X-21703030Y4430014D01*
G01X-21696934Y4423918D01*
G01X-21663914Y4368038D02*
G01X-21712174Y4368038D01*
G01X-21721064Y4371086D01*
G01X-21724112Y4374134D01*
G01X-21727160Y4380230D01*
G01X-21727160Y4389374D01*
G01X-21724112Y4395216D01*
G01X-21672804Y4368038D02*
G01X-21666962Y4374134D01*
G01X-21663914Y4380230D01*
G01X-21663914Y4389374D01*
G01X-21666962Y4395216D01*
G01X-21672804Y4401312D01*
G01X-21681948Y4404360D01*
G01X-21688044Y4404360D01*
G01X-21696934Y4401312D01*
G01X-21703030Y4395216D01*
G01X-21706078Y4389374D01*
G01X-21706078Y4380230D01*
G01X-21703030Y4374134D01*
G01X-21696934Y4368038D01*
G01X-21642832Y4348480D02*
G01X-21645626Y4345432D01*
G01X-21642832Y4342384D01*
G01X-21639784Y4345432D01*
G01X-21642832Y4348480D01*
G01X-21663914Y4345432D02*
G01X-21706078Y4345432D01*
G01X-21663914Y4322826D02*
G01X-21706078Y4322826D01*
G01X-21675852Y4322826D02*
G01X-21666962Y4313682D01*
G01X-21663914Y4307840D01*
G01X-21663914Y4298696D01*
G01X-21666962Y4292600D01*
G01X-21675852Y4289552D01*
G01X-21706078Y4289552D01*
G01X-21663914Y4233672D02*
G01X-21712174Y4233672D01*
G01X-21721064Y4236720D01*
G01X-21724112Y4239768D01*
G01X-21727160Y4245864D01*
G01X-21727160Y4255008D01*
G01X-21724112Y4260850D01*
G01X-21672804Y4233672D02*
G01X-21666962Y4239768D01*
G01X-21663914Y4245864D01*
G01X-21663914Y4255008D01*
G01X-21666962Y4260850D01*
G01X-21672804Y4266946D01*
G01X-21681948Y4269994D01*
G01X-21688044Y4269994D01*
G01X-21696934Y4266946D01*
G01X-21703030Y4260850D01*
G01X-21706078Y4255008D01*
G01X-21706078Y4245864D01*
G01X-21703030Y4239768D01*
G01X-21696934Y4233672D01*
G01X-21663914Y4110228D02*
G01X-21706078Y4110228D01*
G01X-21672804Y4110228D02*
G01X-21666962Y4116324D01*
G01X-21663914Y4122420D01*
G01X-21663914Y4131564D01*
G01X-21666962Y4137406D01*
G01X-21672804Y4143502D01*
G01X-21681948Y4146550D01*
G01X-21688044Y4146550D01*
G01X-21696934Y4143502D01*
G01X-21703030Y4137406D01*
G01X-21706078Y4131564D01*
G01X-21706078Y4122420D01*
G01X-21703030Y4116324D01*
G01X-21696934Y4110228D01*
G01X-21663914Y4090670D02*
G01X-21706078Y4090670D01*
G01X-21675852Y4090670D02*
G01X-21666962Y4081526D01*
G01X-21663914Y4075684D01*
G01X-21663914Y4066540D01*
G01X-21666962Y4060444D01*
G01X-21675852Y4057396D01*
G01X-21706078Y4057396D01*
G01X-21663914Y4034790D02*
G01X-21706078Y4016756D01*
G01X-21663914Y3998722D02*
G01X-21706078Y4016756D01*
G01X-21718016Y4022852D01*
G01X-21724112Y4028694D01*
G01X-21727160Y4034790D01*
G01X-21727160Y4037838D01*
G01X-21642832Y3970020D02*
G01X-21693886Y3970020D01*
G01X-21703030Y3966972D01*
G01X-21706078Y3961130D01*
G01X-21706078Y3955034D01*
G01X-21663914Y3979164D02*
G01X-21663914Y3958082D01*
G01X-21642832Y3935476D02*
G01X-21706078Y3935476D01*
G01X-21675852Y3935476D02*
G01X-21666962Y3926332D01*
G01X-21663914Y3920490D01*
G01X-21663914Y3911346D01*
G01X-21666962Y3905250D01*
G01X-21675852Y3902202D01*
G01X-21706078Y3902202D01*
G01X-21642832Y3882644D02*
G01X-21645626Y3879596D01*
G01X-21642832Y3876548D01*
G01X-21639784Y3879596D01*
G01X-21642832Y3882644D01*
G01X-21663914Y3879596D02*
G01X-21706078Y3879596D01*
G01X-21663914Y3856990D02*
G01X-21706078Y3856990D01*
G01X-21675852Y3856990D02*
G01X-21666962Y3847846D01*
G01X-21663914Y3842004D01*
G01X-21663914Y3832860D01*
G01X-21666962Y3826764D01*
G01X-21675852Y3823716D01*
G01X-21706078Y3823716D01*
G01X-21663914Y3767836D02*
G01X-21712174Y3767836D01*
G01X-21721064Y3770884D01*
G01X-21724112Y3773932D01*
G01X-21727160Y3780028D01*
G01X-21727160Y3789172D01*
G01X-21724112Y3795014D01*
G01X-21672804Y3767836D02*
G01X-21666962Y3773932D01*
G01X-21663914Y3780028D01*
G01X-21663914Y3789172D01*
G01X-21666962Y3795014D01*
G01X-21672804Y3801110D01*
G01X-21681948Y3804158D01*
G01X-21688044Y3804158D01*
G01X-21696934Y3801110D01*
G01X-21703030Y3795014D01*
G01X-21706078Y3789172D01*
G01X-21706078Y3780028D01*
G01X-21703030Y3773932D01*
G01X-21696934Y3767836D01*
G01X-21796248Y5229860D02*
G01X-21796248Y5193538D01*
G01X-21790152Y5193538D01*
G01X-21784056Y5196586D01*
G01X-21781262Y5199634D01*
G01X-21778214Y5205730D01*
G01X-21778214Y5214874D01*
G01X-21781262Y5220716D01*
G01X-21787104Y5226812D01*
G01X-21796248Y5229860D01*
G01X-21802344Y5229860D01*
G01X-21811234Y5226812D01*
G01X-21817330Y5220716D01*
G01X-21820378Y5214874D01*
G01X-21820378Y5205730D01*
G01X-21817330Y5199634D01*
G01X-21811234Y5193538D01*
G01X-21757132Y5173980D02*
G01X-21820378Y5173980D01*
G01X-21787104Y5121148D02*
G01X-21781262Y5124196D01*
G01X-21778214Y5133340D01*
G01X-21778214Y5142230D01*
G01X-21781262Y5151374D01*
G01X-21787104Y5154422D01*
G01X-21793200Y5151374D01*
G01X-21796248Y5145278D01*
G01X-21799296Y5130292D01*
G01X-21802344Y5124196D01*
G01X-21808186Y5121148D01*
G01X-21811234Y5121148D01*
G01X-21817330Y5124196D01*
G01X-21820378Y5133340D01*
G01X-21820378Y5142230D01*
G01X-21817330Y5151374D01*
G01X-21811234Y5154422D01*
G01X-21796248Y5101590D02*
G01X-21796248Y5065268D01*
G01X-21790152Y5065268D01*
G01X-21784056Y5068316D01*
G01X-21781262Y5071364D01*
G01X-21778214Y5077460D01*
G01X-21778214Y5086604D01*
G01X-21781262Y5092446D01*
G01X-21787104Y5098542D01*
G01X-21796248Y5101590D01*
G01X-21802344Y5101590D01*
G01X-21811234Y5098542D01*
G01X-21817330Y5092446D01*
G01X-21820378Y5086604D01*
G01X-21820378Y5077460D01*
G01X-21817330Y5071364D01*
G01X-21811234Y5065268D01*
G01X-21778214Y4978146D02*
G01X-21820378Y4965954D01*
G01X-21778214Y4954016D02*
G01X-21820378Y4965954D01*
G01X-21778214Y4954016D02*
G01X-21820378Y4941824D01*
G01X-21778214Y4929886D02*
G01X-21820378Y4941824D01*
G01X-21757132Y4910328D02*
G01X-21759926Y4907280D01*
G01X-21757132Y4904232D01*
G01X-21754084Y4907280D01*
G01X-21757132Y4910328D01*
G01X-21778214Y4907280D02*
G01X-21820378Y4907280D01*
G01X-21757132Y4884674D02*
G01X-21820378Y4884674D01*
G01X-21757132Y4865116D02*
G01X-21820378Y4865116D01*
G01X-21757132Y4777994D02*
G01X-21820378Y4777994D01*
G01X-21757132Y4758436D02*
G01X-21759926Y4755388D01*
G01X-21757132Y4752340D01*
G01X-21754084Y4755388D01*
G01X-21757132Y4758436D01*
G01X-21778214Y4755388D02*
G01X-21820378Y4755388D01*
G01X-21757132Y4732782D02*
G01X-21820378Y4732782D01*
G01X-21778214Y4702556D02*
G01X-21808186Y4732782D01*
G01X-21796248Y4720590D02*
G01X-21820378Y4699508D01*
G01X-21796248Y4679950D02*
G01X-21796248Y4643628D01*
G01X-21790152Y4643628D01*
G01X-21784056Y4646676D01*
G01X-21781262Y4649724D01*
G01X-21778214Y4655820D01*
G01X-21778214Y4664964D01*
G01X-21781262Y4670806D01*
G01X-21787104Y4676902D01*
G01X-21796248Y4679950D01*
G01X-21802344Y4679950D01*
G01X-21811234Y4676902D01*
G01X-21817330Y4670806D01*
G01X-21820378Y4664964D01*
G01X-21820378Y4655820D01*
G01X-21817330Y4649724D01*
G01X-21811234Y4643628D01*
G01X-21757132Y4624070D02*
G01X-21820378Y4624070D01*
G01X-21778214Y4601464D02*
G01X-21820378Y4583430D01*
G01X-21778214Y4565396D02*
G01X-21820378Y4583430D01*
G01X-21832316Y4589526D01*
G01X-21838412Y4595368D01*
G01X-21841460Y4601464D01*
G01X-21841460Y4604512D01*
G01X-21757132Y4454144D02*
G01X-21757132Y4460240D01*
G01X-21759926Y4466082D01*
G01X-21769070Y4469130D01*
G01X-21820378Y4469130D01*
G01X-21778214Y4478274D02*
G01X-21778214Y4457192D01*
G01X-21778214Y4434586D02*
G01X-21820378Y4434586D01*
G01X-21796248Y4434586D02*
G01X-21787104Y4431538D01*
G01X-21781262Y4425442D01*
G01X-21778214Y4419600D01*
G01X-21778214Y4410456D01*
G01X-21778214Y4387850D02*
G01X-21820378Y4369816D01*
G01X-21778214Y4351782D02*
G01X-21820378Y4369816D01*
G01X-21832316Y4375912D01*
G01X-21838412Y4381754D01*
G01X-21841460Y4387850D01*
G01X-21841460Y4390898D01*
G01X-21757132Y4255516D02*
G01X-21808186Y4255516D01*
G01X-21817330Y4252468D01*
G01X-21820378Y4246626D01*
G01X-21820378Y4240530D01*
G01X-21778214Y4264660D02*
G01X-21778214Y4243578D01*
G01X-21757132Y4220972D02*
G01X-21820378Y4220972D01*
G01X-21790152Y4220972D02*
G01X-21781262Y4211828D01*
G01X-21778214Y4205986D01*
G01X-21778214Y4196842D01*
G01X-21781262Y4190746D01*
G01X-21790152Y4187698D01*
G01X-21820378Y4187698D01*
G01X-21796248Y4168140D02*
G01X-21796248Y4131818D01*
G01X-21790152Y4131818D01*
G01X-21784056Y4134866D01*
G01X-21781262Y4137914D01*
G01X-21778214Y4144010D01*
G01X-21778214Y4153154D01*
G01X-21781262Y4158996D01*
G01X-21787104Y4165092D01*
G01X-21796248Y4168140D01*
G01X-21802344Y4168140D01*
G01X-21811234Y4165092D01*
G01X-21817330Y4158996D01*
G01X-21820378Y4153154D01*
G01X-21820378Y4144010D01*
G01X-21817330Y4137914D01*
G01X-21811234Y4131818D01*
G01X-21757132Y4008374D02*
G01X-21820378Y4008374D01*
G01X-21787104Y4008374D02*
G01X-21781262Y4014470D01*
G01X-21778214Y4020566D01*
G01X-21778214Y4029710D01*
G01X-21781262Y4035552D01*
G01X-21787104Y4041648D01*
G01X-21796248Y4044696D01*
G01X-21802344Y4044696D01*
G01X-21811234Y4041648D01*
G01X-21817330Y4035552D01*
G01X-21820378Y4029710D01*
G01X-21820378Y4020566D01*
G01X-21817330Y4014470D01*
G01X-21811234Y4008374D01*
G01X-21796248Y3988816D02*
G01X-21796248Y3952494D01*
G01X-21790152Y3952494D01*
G01X-21784056Y3955542D01*
G01X-21781262Y3958590D01*
G01X-21778214Y3964686D01*
G01X-21778214Y3973830D01*
G01X-21781262Y3979672D01*
G01X-21787104Y3985768D01*
G01X-21796248Y3988816D01*
G01X-21802344Y3988816D01*
G01X-21811234Y3985768D01*
G01X-21817330Y3979672D01*
G01X-21820378Y3973830D01*
G01X-21820378Y3964686D01*
G01X-21817330Y3958590D01*
G01X-21811234Y3952494D01*
G01X-21778214Y3932936D02*
G01X-21820378Y3914902D01*
G01X-21778214Y3896614D02*
G01X-21820378Y3914902D01*
G01X-21757132Y3877056D02*
G01X-21759926Y3874008D01*
G01X-21757132Y3870960D01*
G01X-21754084Y3874008D01*
G01X-21757132Y3877056D01*
G01X-21778214Y3874008D02*
G01X-21820378Y3874008D01*
G01X-21787104Y3815080D02*
G01X-21781262Y3821176D01*
G01X-21778214Y3827272D01*
G01X-21778214Y3836416D01*
G01X-21781262Y3842258D01*
G01X-21787104Y3848354D01*
G01X-21796248Y3851402D01*
G01X-21802344Y3851402D01*
G01X-21811234Y3848354D01*
G01X-21817330Y3842258D01*
G01X-21820378Y3836416D01*
G01X-21820378Y3827272D01*
G01X-21817330Y3821176D01*
G01X-21811234Y3815080D01*
G01X-21796248Y3795522D02*
G01X-21796248Y3759200D01*
G01X-21790152Y3759200D01*
G01X-21784056Y3762248D01*
G01X-21781262Y3765296D01*
G01X-21778214Y3771392D01*
G01X-21778214Y3780536D01*
G01X-21781262Y3786378D01*
G01X-21787104Y3792474D01*
G01X-21796248Y3795522D01*
G01X-21802344Y3795522D01*
G01X-21811234Y3792474D01*
G01X-21817330Y3786378D01*
G01X-21820378Y3780536D01*
G01X-21820378Y3771392D01*
G01X-21817330Y3765296D01*
G01X-21811234Y3759200D01*
G01X-21805392Y3736594D02*
G01X-21808186Y3739642D01*
G01X-21811234Y3736594D01*
G01X-21808186Y3733546D01*
G01X-21805392Y3736594D01*
G54D12*
G01X-20712938Y1326134D02*
G01X-20719034Y1323086D01*
G01X-20725384Y1316990D01*
G01X-20728432Y1310640D01*
G01X-20731480Y1301496D01*
G01X-20731480Y1286002D01*
G01X-20728432Y1276604D01*
G01X-20725384Y1270508D01*
G01X-20719034Y1264158D01*
G01X-20712938Y1261110D01*
G01X-20700492Y1261110D01*
G01X-20694396Y1264158D01*
G01X-20688046Y1270508D01*
G01X-20684998Y1276604D01*
G01X-20681950Y1286002D01*
G01X-20681950Y1301496D01*
G01X-20684998Y1310640D01*
G01X-20688046Y1316990D01*
G01X-20694396Y1323086D01*
G01X-20700492Y1326134D01*
G01X-20712938Y1326134D01*
G01X-20651724Y1326134D02*
G01X-20651724Y1261110D01*
G01X-20651724Y1326134D02*
G01X-20624038Y1326134D01*
G01X-20614640Y1323086D01*
G01X-20611592Y1320038D01*
G01X-20608544Y1313688D01*
G01X-20608544Y1307592D01*
G01X-20611592Y1301496D01*
G01X-20614640Y1298448D01*
G01X-20624038Y1295146D01*
G01X-20651724Y1295146D02*
G01X-20624038Y1295146D01*
G01X-20614640Y1292098D01*
G01X-20611592Y1289050D01*
G01X-20608544Y1282954D01*
G01X-20608544Y1273556D01*
G01X-20611592Y1267460D01*
G01X-20614640Y1264158D01*
G01X-20624038Y1261110D01*
G01X-20651724Y1261110D01*
G01X-20578318Y1326134D02*
G01X-20578318Y1261110D01*
G01X-20578318Y1326134D02*
G01X-20556728Y1326134D01*
G01X-20547584Y1323086D01*
G01X-20541234Y1316990D01*
G01X-20538186Y1310640D01*
G01X-20535138Y1301496D01*
G01X-20535138Y1286002D01*
G01X-20538186Y1276604D01*
G01X-20541234Y1270508D01*
G01X-20547584Y1264158D01*
G01X-20556728Y1261110D01*
G01X-20578318Y1261110D01*
G01X-20504912Y1289050D02*
G01X-20449286Y1289050D01*
G01X-20419060Y1326134D02*
G01X-20419060Y1261110D01*
G01X-20388834Y1326134D02*
G01X-20388834Y1261110D01*
G01X-21419566Y2748280D02*
G01X-21484590Y2748280D01*
G01X-21419566Y2748280D02*
G01X-21419566Y2720340D01*
G01X-21422614Y2711196D01*
G01X-21425662Y2708148D01*
G01X-21432012Y2704846D01*
G01X-21441156Y2704846D01*
G01X-21447252Y2708148D01*
G01X-21450554Y2711196D01*
G01X-21453602Y2720340D01*
G01X-21453602Y2748280D01*
G01X-21419566Y2674620D02*
G01X-21484590Y2674620D01*
G01X-21419566Y2674620D02*
G01X-21419566Y2634488D01*
G01X-21450554Y2674620D02*
G01X-21450554Y2649982D01*
G01X-21484590Y2674620D02*
G01X-21484590Y2634488D01*
G01X-21419566Y2604262D02*
G01X-21484590Y2604262D01*
G01X-21419566Y2604262D02*
G01X-21419566Y2582672D01*
G01X-21422614Y2573528D01*
G01X-21428710Y2567178D01*
G01X-21435060Y2564130D01*
G01X-21444204Y2561082D01*
G01X-21459698Y2561082D01*
G01X-21469096Y2564130D01*
G01X-21475192Y2567178D01*
G01X-21481542Y2573528D01*
G01X-21484590Y2582672D01*
G01X-21484590Y2604262D01*
G01X-21419566Y2506218D02*
G01X-21484590Y2530856D01*
G01X-21419566Y2506218D02*
G01X-21484590Y2481326D01*
G01X-21462746Y2521712D02*
G01X-21462746Y2490724D01*
G01X-21419566Y2451100D02*
G01X-21484590Y2451100D01*
G01X-21484590Y2451100D02*
G01X-21484590Y2414016D01*
G01X-22689566Y4208780D02*
G01X-22736048Y4208780D01*
G01X-22745192Y4205732D01*
G01X-22751542Y4199382D01*
G01X-22754590Y4190238D01*
G01X-22754590Y4183888D01*
G01X-22751542Y4174744D01*
G01X-22745192Y4168648D01*
G01X-22736048Y4165346D01*
G01X-22689566Y4165346D01*
G01X-22698710Y4091940D02*
G01X-22692614Y4098036D01*
G01X-22689566Y4107434D01*
G01X-22689566Y4119880D01*
G01X-22692614Y4129024D01*
G01X-22698710Y4135120D01*
G01X-22705060Y4135120D01*
G01X-22711156Y4132072D01*
G01X-22714204Y4129024D01*
G01X-22717252Y4122928D01*
G01X-22723602Y4104386D01*
G01X-22726650Y4098036D01*
G01X-22729698Y4094988D01*
G01X-22736048Y4091940D01*
G01X-22745192Y4091940D01*
G01X-22751542Y4098036D01*
G01X-22754590Y4107434D01*
G01X-22754590Y4119880D01*
G01X-22751542Y4129024D01*
G01X-22745192Y4135120D01*
G01X-22689566Y4061714D02*
G01X-22754590Y4061714D01*
G01X-22689566Y4061714D02*
G01X-22689566Y4034028D01*
G01X-22692614Y4024630D01*
G01X-22695662Y4021582D01*
G01X-22702012Y4018534D01*
G01X-22708108Y4018534D01*
G01X-22714204Y4021582D01*
G01X-22717252Y4024630D01*
G01X-22720554Y4034028D01*
G01X-22720554Y4061714D02*
G01X-22720554Y4034028D01*
G01X-22723602Y4024630D01*
G01X-22726650Y4021582D01*
G01X-22732746Y4018534D01*
G01X-22742144Y4018534D01*
G01X-22748240Y4021582D01*
G01X-22751542Y4024630D01*
G01X-22754590Y4034028D01*
G01X-22754590Y4061714D01*
G01X-22726650Y3988308D02*
G01X-22726650Y3932682D01*
G01X-22705060Y3856228D02*
G01X-22698710Y3859276D01*
G01X-22692614Y3865372D01*
G01X-22689566Y3871722D01*
G01X-22689566Y3883914D01*
G01X-22692614Y3890264D01*
G01X-22698710Y3896360D01*
G01X-22705060Y3899408D01*
G01X-22714204Y3902456D01*
G01X-22729698Y3902456D01*
G01X-22739096Y3899408D01*
G01X-22745192Y3896360D01*
G01X-22751542Y3890264D01*
G01X-22754590Y3883914D01*
G01X-22754590Y3871722D01*
G01X-22751542Y3865372D01*
G01X-22745192Y3859276D01*
G01X-22739096Y3856228D01*
G01X-22676866Y3370580D02*
G01X-22741890Y3370580D01*
G01X-22676866Y3370580D02*
G01X-22676866Y3342640D01*
G01X-22679914Y3333496D01*
G01X-22682962Y3330448D01*
G01X-22689312Y3327146D01*
G01X-22695408Y3327146D01*
G01X-22701504Y3330448D01*
G01X-22704552Y3333496D01*
G01X-22707854Y3342640D01*
G01X-22707854Y3370580D01*
G01X-22707854Y3348990D02*
G01X-22741890Y3327146D01*
G01X-22676866Y3272282D02*
G01X-22741890Y3296920D01*
G01X-22676866Y3272282D02*
G01X-22741890Y3247390D01*
G01X-22720046Y3287776D02*
G01X-22720046Y3256788D01*
G01X-22676866Y3217164D02*
G01X-22741890Y3217164D01*
G01X-22676866Y3217164D02*
G01X-22676866Y3195574D01*
G01X-22679914Y3186430D01*
G01X-22686010Y3180080D01*
G01X-22692360Y3177032D01*
G01X-22701504Y3173984D01*
G01X-22716998Y3173984D01*
G01X-22726396Y3177032D01*
G01X-22732492Y3180080D01*
G01X-22738842Y3186430D01*
G01X-22741890Y3195574D01*
G01X-22741890Y3217164D01*
G01X-22676866Y3119120D02*
G01X-22741890Y3143758D01*
G01X-22676866Y3119120D02*
G01X-22741890Y3094228D01*
G01X-22720046Y3134614D02*
G01X-22720046Y3103626D01*
G01X-22676866Y3064002D02*
G01X-22741890Y3064002D01*
G01X-22676866Y3064002D02*
G01X-22676866Y3036316D01*
G01X-22679914Y3026918D01*
G01X-22682962Y3023870D01*
G01X-22689312Y3020822D01*
G01X-22695408Y3020822D01*
G01X-22701504Y3023870D01*
G01X-22704552Y3026918D01*
G01X-22707854Y3036316D01*
G01X-22707854Y3064002D01*
G01X-22707854Y3042412D02*
G01X-22741890Y3020822D01*
G01X-20923037Y2237712D02*
G01X-20988061Y2237712D01*
G01X-20923037Y2237712D02*
G01X-20923037Y2209772D01*
G01X-20926085Y2200628D01*
G01X-20929133Y2197580D01*
G01X-20935483Y2194278D01*
G01X-20941579Y2194278D01*
G01X-20947675Y2197580D01*
G01X-20950723Y2200628D01*
G01X-20954025Y2209772D01*
G01X-20954025Y2237712D01*
G01X-20954025Y2216122D02*
G01X-20988061Y2194278D01*
G01X-20923037Y2157956D02*
G01X-20923037Y2123920D01*
G01X-20947675Y2142462D01*
G01X-20947675Y2133318D01*
G01X-20950723Y2126968D01*
G01X-20954025Y2123920D01*
G01X-20963169Y2120872D01*
G01X-20969519Y2120872D01*
G01X-20978663Y2123920D01*
G01X-20985013Y2130016D01*
G01X-20988061Y2139414D01*
G01X-20988061Y2148812D01*
G01X-20985013Y2157956D01*
G01X-20981711Y2161004D01*
G01X-20975615Y2164052D01*
G04 Text End*

G04 PolygonModel Start*
G54D13*
G01X-20200200Y5126200D02*
G01X-20860200Y5126200D01*
G01X-20860200Y5126200D02*
G01X-20860200Y1376200D01*
G01X-20860200Y1376200D02*
G01X-20200200Y1376200D01*
G01X-20175200Y1241200D02*
G01X-18125200Y1241200D01*
G01X-18125200Y5261200D02*
G01X-18125200Y1241200D01*
G01X-20175200Y5261200D02*
G01X-20175200Y1241200D01*
G01X-20175200Y5261200D02*
G01X-18125200Y5261200D01*
G01X-21600104Y1675582D02*
G01X-21600104Y1674813D01*
G01X-21600104Y1777583D02*
G01X-21600104Y1776811D01*
G01X-21600104Y1879582D02*
G01X-21600104Y1878813D01*
G01X-21600104Y1981581D02*
G01X-21600104Y1980811D01*
G01X-21600104Y2083582D02*
G01X-21600104Y2082810D01*
G01X-21600104Y2185581D02*
G01X-21600104Y2184811D01*
G01X-21600104Y2287582D02*
G01X-21600104Y2286810D01*
G01X-21600104Y2721193D02*
G01X-21600104Y2388812D01*
G01X-21883647Y2721193D02*
G01X-21600104Y2721193D01*
G01X-21600104Y1573586D02*
G01X-21600107Y1251194D01*
G01X-21600107Y1251194D02*
G01X-21880330Y1251194D01*
G01X-22784882Y1251194D02*
G01X-23130101Y1251194D01*
G01X-23130101Y1251194D02*
G01X-23130101Y2721193D01*
G01X-23130101Y2721193D02*
G01X-22781565Y2721193D01*
G01X-22473646Y2721193D02*
G01X-22191569Y2721193D01*
G01X-22194886Y1251196D02*
G01X-22470328Y1251196D01*
G01X-22915898Y5212514D02*
G01X-22915900Y4312511D01*
G01X-22091848Y4385554D02*
G01X-22091848Y4451393D01*
G01X-22091848Y5082637D02*
G01X-22091848Y5139446D01*
G01X-22330862Y5214341D02*
G01X-22330862Y5156721D01*
G01X-22330862Y5113287D02*
G01X-22330862Y5008979D01*
G01X-22330862Y4996056D02*
G01X-22330862Y4928969D01*
G01X-22330862Y4916046D02*
G01X-22330862Y4848984D01*
G01X-22330862Y4836061D02*
G01X-22330862Y4688964D01*
G01X-22330862Y4676041D02*
G01X-22330862Y4608980D01*
G01X-22330862Y4596056D02*
G01X-22330862Y4528970D01*
G01X-22330862Y4516046D02*
G01X-22330862Y4411739D01*
G01X-22330862Y4368305D02*
G01X-22330862Y4311513D01*
G01X-22915898Y5212514D02*
G01X-22788971Y5212514D01*
G01X-22582744Y5212514D02*
G01X-22227962Y5212514D01*
G01X-22915900Y4311513D02*
G01X-22788964Y4311513D01*
G01X-22582751Y4311513D02*
G01X-22227954Y4311513D01*
G54D12*
G01X-22231220Y3956009D02*
G01X-22367212Y3956009D01*
G01X-22367212Y3956009D02*
G01X-22367212Y3740191D01*
G01X-22367212Y3740191D02*
G01X-22231220Y3740191D01*
G01X-22040980Y3956009D02*
G01X-21904988Y3956009D01*
G01X-21904988Y3956009D02*
G01X-21904988Y3740191D01*
G01X-21904988Y3740191D02*
G01X-22040980Y3740191D01*
G01X-22496221Y4142760D02*
G01X-22592109Y4142760D01*
G01X-22592109Y4142760D02*
G01X-22592109Y4010640D01*
G01X-22592109Y4010640D02*
G01X-22496221Y4010640D01*
G01X-22410979Y4142760D02*
G01X-22315091Y4142760D01*
G01X-22315091Y4142760D02*
G01X-22315091Y4010640D01*
G01X-22315091Y4010640D02*
G01X-22410979Y4010640D01*
G54D13*
G01X-22098000Y3429000D02*
G01X-22110700Y3429000D01*
G01X-22110700Y3429000D02*
G01X-22110700Y3479800D01*
G01X-22098000Y3429000D02*
G01X-21932900Y3429000D01*
G01X-21932900Y3429000D02*
G01X-21932900Y2933700D01*
G01X-21932900Y2933700D02*
G01X-22580600Y2933700D01*
G01X-22580600Y2933700D02*
G01X-22580600Y3416300D01*
G01X-22580600Y3416300D02*
G01X-22428200Y3416300D01*
G01X-22428200Y3416300D02*
G01X-22428200Y3467100D01*
G54D12*
G01X-21253409Y1911480D02*
G01X-21253409Y1775488D01*
G01X-21253409Y1775488D02*
G01X-21037591Y1775488D01*
G01X-21037591Y1775488D02*
G01X-21037591Y1911480D01*
G01X-21253409Y2101720D02*
G01X-21253409Y2237712D01*
G01X-21253409Y2237712D02*
G01X-21037591Y2237712D01*
G01X-21037591Y2237712D02*
G01X-21037591Y2101720D01*

G04 Rect Start*
G54D13*
G01X-21882087Y3479800D02*
G01X-21882087Y2882900D01*
G01X-22631387Y2882900D01*
G01X-22631387Y3479800D01*
G01X-21882087Y3479800D01*
G04 Rect End*

G04 Circle Start*
G54D14*
G01X-20436205Y1527000D02*
G03X-20356195Y1527000I40005J0D01*
G03X-20436205Y1527000I-40005J0D01*
G04 Circle End*

M02*

